solid CATIA STL
  facet normal  0.000000e+000  0.000000e+000  1.000000e+000
    outer loop
      vertex -4.050000e+001  4.600000e+001  3.000000e+000
      vertex -4.050000e+001  4.450000e+001  3.000000e+000
      vertex  4.350000e+001  4.450000e+001  3.000000e+000
    endloop
  endfacet
  facet normal  0.000000e+000  0.000000e+000  1.000000e+000
    outer loop
      vertex -4.050000e+001  4.600000e+001  3.000000e+000
      vertex  4.350000e+001  4.450000e+001  3.000000e+000
      vertex  4.650000e+001  7.050000e+001  3.000000e+000
    endloop
  endfacet
  facet normal  0.000000e+000  0.000000e+000  1.000000e+000
    outer loop
      vertex -4.050000e+001  4.600000e+001  3.000000e+000
      vertex  4.650000e+001  7.050000e+001  3.000000e+000
      vertex -5.650000e+001  7.050000e+001  3.000000e+000
    endloop
  endfacet
  facet normal  0.000000e+000  0.000000e+000  1.000000e+000
    outer loop
      vertex -4.050000e+001  4.600000e+001  3.000000e+000
      vertex -5.650000e+001  7.050000e+001  3.000000e+000
      vertex -5.350000e+001  4.600000e+001  3.000000e+000
    endloop
  endfacet
  facet normal  0.000000e+000  0.000000e+000  1.000000e+000
    outer loop
      vertex -5.650000e+001 -4.750000e+001  3.000000e+000
      vertex  4.650000e+001 -4.750000e+001  3.000000e+000
      vertex -4.050000e+001 -4.600000e+001  3.000000e+000
    endloop
  endfacet
  facet normal  0.000000e+000  0.000000e+000  1.000000e+000
    outer loop
      vertex -5.650000e+001 -4.750000e+001  3.000000e+000
      vertex -4.050000e+001 -4.600000e+001  3.000000e+000
      vertex -5.350000e+001 -4.600000e+001  3.000000e+000
    endloop
  endfacet
  facet normal  0.000000e+000  0.000000e+000  1.000000e+000
    outer loop
      vertex -5.650000e+001 -4.750000e+001  3.000000e+000
      vertex -5.350000e+001 -4.600000e+001  3.000000e+000
      vertex -5.350000e+001 -4.450000e+001  3.000000e+000
    endloop
  endfacet
  facet normal  0.000000e+000  0.000000e+000  1.000000e+000
    outer loop
      vertex -5.650000e+001 -4.750000e+001  3.000000e+000
      vertex -5.350000e+001 -4.450000e+001  3.000000e+000
      vertex -5.650000e+001 -4.450000e+001  3.000000e+000
    endloop
  endfacet
  facet normal  0.000000e+000  0.000000e+000  1.000000e+000
    outer loop
      vertex -5.650000e+001  4.450000e+001  3.000000e+000
      vertex -5.350000e+001  4.450000e+001  3.000000e+000
      vertex -5.650000e+001  7.050000e+001  3.000000e+000
    endloop
  endfacet
  facet normal  0.000000e+000  0.000000e+000  1.000000e+000
    outer loop
      vertex -5.650000e+001  7.050000e+001  3.000000e+000
      vertex -5.350000e+001  4.450000e+001  3.000000e+000
      vertex -5.350000e+001  4.600000e+001  3.000000e+000
    endloop
  endfacet
  facet normal  0.000000e+000  0.000000e+000  1.000000e+000
    outer loop
      vertex  4.650000e+001  7.050000e+001  3.000000e+000
      vertex  4.350000e+001  4.450000e+001  3.000000e+000
      vertex  4.650000e+001 -4.750000e+001  3.000000e+000
    endloop
  endfacet
  facet normal  0.000000e+000  0.000000e+000  1.000000e+000
    outer loop
      vertex  4.650000e+001 -4.750000e+001  3.000000e+000
      vertex  4.350000e+001  4.450000e+001  3.000000e+000
      vertex  4.350000e+001 -4.450000e+001  3.000000e+000
    endloop
  endfacet
  facet normal  0.000000e+000  0.000000e+000  1.000000e+000
    outer loop
      vertex  4.650000e+001 -4.750000e+001  3.000000e+000
      vertex  4.350000e+001 -4.450000e+001  3.000000e+000
      vertex -4.050000e+001 -4.600000e+001  3.000000e+000
    endloop
  endfacet
  facet normal  0.000000e+000  0.000000e+000  1.000000e+000
    outer loop
      vertex -4.050000e+001 -4.600000e+001  3.000000e+000
      vertex  4.350000e+001 -4.450000e+001  3.000000e+000
      vertex -4.050000e+001 -4.450000e+001  3.000000e+000
    endloop
  endfacet
  facet normal  0.000000e+000  0.000000e+000 -1.000000e+000
    outer loop
      vertex -5.650000e+001  4.650000e+001 -6.000000e+000
      vertex -5.350000e+001  4.650000e+001 -6.000000e+000
      vertex -5.650000e+001 -4.750000e+001 -6.000000e+000
    endloop
  endfacet
  facet normal  0.000000e+000  0.000000e+000 -1.000000e+000
    outer loop
      vertex -5.650000e+001 -4.750000e+001 -6.000000e+000
      vertex -5.350000e+001  4.650000e+001 -6.000000e+000
      vertex -5.350000e+001 -4.750000e+001 -6.000000e+000
    endloop
  endfacet
  facet normal -1.000000e+000  0.000000e+000  0.000000e+000
    outer loop
      vertex -5.650000e+001 -4.750000e+001  3.000000e+000
      vertex -5.650000e+001 -4.450000e+001  3.000000e+000
      vertex -5.650000e+001 -4.750000e+001 -6.000000e+000
    endloop
  endfacet
  facet normal -1.000000e+000  0.000000e+000  0.000000e+000
    outer loop
      vertex -5.650000e+001 -4.750000e+001 -6.000000e+000
      vertex -5.650000e+001 -4.450000e+001  3.000000e+000
      vertex -5.650000e+001 -4.450000e+001  2.000000e+000
    endloop
  endfacet
  facet normal -1.000000e+000  0.000000e+000  0.000000e+000
    outer loop
      vertex -5.650000e+001 -4.750000e+001 -6.000000e+000
      vertex -5.650000e+001 -4.450000e+001  2.000000e+000
      vertex -5.650000e+001  4.650000e+001 -6.000000e+000
    endloop
  endfacet
  facet normal -1.000000e+000  0.000000e+000  0.000000e+000
    outer loop
      vertex -5.650000e+001  4.650000e+001 -6.000000e+000
      vertex -5.650000e+001 -4.450000e+001  2.000000e+000
      vertex -5.650000e+001  4.450000e+001  2.000000e+000
    endloop
  endfacet
  facet normal -1.000000e+000  0.000000e+000  0.000000e+000
    outer loop
      vertex -5.650000e+001  4.650000e+001 -6.000000e+000
      vertex -5.650000e+001  4.450000e+001  2.000000e+000
      vertex -5.650000e+001  4.650000e+001  0.000000e+000
    endloop
  endfacet
  facet normal -1.000000e+000  0.000000e+000  0.000000e+000
    outer loop
      vertex -5.650000e+001  4.650000e+001  0.000000e+000
      vertex -5.650000e+001  4.450000e+001  2.000000e+000
      vertex -5.650000e+001  4.450000e+001  3.000000e+000
    endloop
  endfacet
  facet normal -1.000000e+000  0.000000e+000  0.000000e+000
    outer loop
      vertex -5.650000e+001  4.650000e+001  0.000000e+000
      vertex -5.650000e+001  4.450000e+001  3.000000e+000
      vertex -5.650000e+001  7.050000e+001  0.000000e+000
    endloop
  endfacet
  facet normal -1.000000e+000  0.000000e+000  0.000000e+000
    outer loop
      vertex -5.650000e+001  7.050000e+001  0.000000e+000
      vertex -5.650000e+001  4.450000e+001  3.000000e+000
      vertex -5.650000e+001  7.050000e+001  3.000000e+000
    endloop
  endfacet
  facet normal  0.000000e+000 -1.000000e+000  0.000000e+000
    outer loop
      vertex  4.650000e+001 -4.750000e+001  0.000000e+000
      vertex  4.650000e+001 -4.750000e+001  3.000000e+000
      vertex -5.350000e+001 -4.750000e+001  0.000000e+000
    endloop
  endfacet
  facet normal  0.000000e+000 -1.000000e+000  0.000000e+000
    outer loop
      vertex -5.350000e+001 -4.750000e+001  0.000000e+000
      vertex  4.650000e+001 -4.750000e+001  3.000000e+000
      vertex -5.650000e+001 -4.750000e+001  3.000000e+000
    endloop
  endfacet
  facet normal  0.000000e+000 -1.000000e+000  0.000000e+000
    outer loop
      vertex -5.350000e+001 -4.750000e+001  0.000000e+000
      vertex -5.650000e+001 -4.750000e+001  3.000000e+000
      vertex -5.350000e+001 -4.750000e+001 -6.000000e+000
    endloop
  endfacet
  facet normal  0.000000e+000 -1.000000e+000  0.000000e+000
    outer loop
      vertex -5.350000e+001 -4.750000e+001 -6.000000e+000
      vertex -5.650000e+001 -4.750000e+001  3.000000e+000
      vertex -5.650000e+001 -4.750000e+001 -6.000000e+000
    endloop
  endfacet
  facet normal  1.000000e+000  0.000000e+000  0.000000e+000
    outer loop
      vertex -5.350000e+001  4.650000e+001  0.000000e+000
      vertex -5.350000e+001  4.600000e+001  0.000000e+000
      vertex -5.350000e+001  4.650000e+001 -6.000000e+000
    endloop
  endfacet
  facet normal  1.000000e+000  0.000000e+000  0.000000e+000
    outer loop
      vertex -5.350000e+001 -4.450000e+001  3.000000e+000
      vertex -5.350000e+001 -4.600000e+001  3.000000e+000
      vertex -5.350000e+001 -4.450000e+001  2.000000e+000
    endloop
  endfacet
  facet normal  1.000000e+000  0.000000e+000  0.000000e+000
    outer loop
      vertex -5.350000e+001 -4.450000e+001  2.000000e+000
      vertex -5.350000e+001 -4.600000e+001  3.000000e+000
      vertex -5.350000e+001 -4.600000e+001  0.000000e+000
    endloop
  endfacet
  facet normal  1.000000e+000  0.000000e+000  0.000000e+000
    outer loop
      vertex -5.350000e+001 -4.450000e+001  2.000000e+000
      vertex -5.350000e+001 -4.600000e+001  0.000000e+000
      vertex -5.350000e+001  4.450000e+001  2.000000e+000
    endloop
  endfacet
  facet normal  1.000000e+000  0.000000e+000  0.000000e+000
    outer loop
      vertex -5.350000e+001 -4.750000e+001  0.000000e+000
      vertex -5.350000e+001 -4.750000e+001 -6.000000e+000
      vertex -5.350000e+001 -4.600000e+001  0.000000e+000
    endloop
  endfacet
  facet normal  1.000000e+000  0.000000e+000  0.000000e+000
    outer loop
      vertex -5.350000e+001 -4.600000e+001  0.000000e+000
      vertex -5.350000e+001 -4.750000e+001 -6.000000e+000
      vertex -5.350000e+001  4.650000e+001 -6.000000e+000
    endloop
  endfacet
  facet normal  1.000000e+000  0.000000e+000  0.000000e+000
    outer loop
      vertex -5.350000e+001 -4.600000e+001  0.000000e+000
      vertex -5.350000e+001  4.650000e+001 -6.000000e+000
      vertex -5.350000e+001  4.450000e+001  2.000000e+000
    endloop
  endfacet
  facet normal  1.000000e+000  0.000000e+000  0.000000e+000
    outer loop
      vertex -5.350000e+001  4.450000e+001  2.000000e+000
      vertex -5.350000e+001  4.650000e+001 -6.000000e+000
      vertex -5.350000e+001  4.600000e+001  0.000000e+000
    endloop
  endfacet
  facet normal  1.000000e+000  0.000000e+000  0.000000e+000
    outer loop
      vertex -5.350000e+001  4.450000e+001  2.000000e+000
      vertex -5.350000e+001  4.600000e+001  0.000000e+000
      vertex -5.350000e+001  4.450000e+001  3.000000e+000
    endloop
  endfacet
  facet normal  1.000000e+000  0.000000e+000  0.000000e+000
    outer loop
      vertex -5.350000e+001  4.450000e+001  3.000000e+000
      vertex -5.350000e+001  4.600000e+001  0.000000e+000
      vertex -5.350000e+001  4.600000e+001  3.000000e+000
    endloop
  endfacet
  facet normal  0.000000e+000  1.000000e+000  0.000000e+000
    outer loop
      vertex -5.650000e+001  4.650000e+001  0.000000e+000
      vertex -5.350000e+001  4.650000e+001  0.000000e+000
      vertex -5.650000e+001  4.650000e+001 -6.000000e+000
    endloop
  endfacet
  facet normal  0.000000e+000  1.000000e+000  0.000000e+000
    outer loop
      vertex -5.650000e+001  4.650000e+001 -6.000000e+000
      vertex -5.350000e+001  4.650000e+001  0.000000e+000
      vertex -5.350000e+001  4.650000e+001 -6.000000e+000
    endloop
  endfacet
  facet normal  0.000000e+000  0.000000e+000 -1.000000e+000
    outer loop
      vertex  3.850000e+001 -3.950000e+001  0.000000e+000
      vertex -4.050000e+001 -4.600000e+001  0.000000e+000
      vertex -3.850000e+001 -3.950000e+001  0.000000e+000
    endloop
  endfacet
  facet normal  0.000000e+000  0.000000e+000 -1.000000e+000
    outer loop
      vertex -5.350000e+001  4.600000e+001  0.000000e+000
      vertex -5.350000e+001  4.650000e+001  0.000000e+000
      vertex -4.050000e+001  4.600000e+001  0.000000e+000
    endloop
  endfacet
  facet normal  0.000000e+000  0.000000e+000 -1.000000e+000
    outer loop
      vertex -5.650000e+001  7.050000e+001  0.000000e+000
      vertex  4.650000e+001  7.050000e+001  0.000000e+000
      vertex  3.850000e+001  3.950000e+001  0.000000e+000
    endloop
  endfacet
  facet normal  0.000000e+000  0.000000e+000 -1.000000e+000
    outer loop
      vertex -5.650000e+001  7.050000e+001  0.000000e+000
      vertex  3.850000e+001  3.950000e+001  0.000000e+000
      vertex -4.050000e+001  4.600000e+001  0.000000e+000
    endloop
  endfacet
  facet normal  0.000000e+000  0.000000e+000 -1.000000e+000
    outer loop
      vertex -5.650000e+001  7.050000e+001  0.000000e+000
      vertex -4.050000e+001  4.600000e+001  0.000000e+000
      vertex -5.350000e+001  4.650000e+001  0.000000e+000
    endloop
  endfacet
  facet normal  0.000000e+000  0.000000e+000 -1.000000e+000
    outer loop
      vertex -5.650000e+001  7.050000e+001  0.000000e+000
      vertex -5.350000e+001  4.650000e+001  0.000000e+000
      vertex -5.650000e+001  4.650000e+001  0.000000e+000
    endloop
  endfacet
  facet normal  0.000000e+000  0.000000e+000 -1.000000e+000
    outer loop
      vertex  3.850000e+001  3.950000e+001  0.000000e+000
      vertex  4.650000e+001  7.050000e+001  0.000000e+000
      vertex  3.850000e+001 -3.950000e+001  0.000000e+000
    endloop
  endfacet
  facet normal  0.000000e+000  0.000000e+000 -1.000000e+000
    outer loop
      vertex  3.850000e+001 -3.950000e+001  0.000000e+000
      vertex  4.650000e+001  7.050000e+001  0.000000e+000
      vertex  4.650000e+001 -4.750000e+001  0.000000e+000
    endloop
  endfacet
  facet normal  0.000000e+000  0.000000e+000 -1.000000e+000
    outer loop
      vertex  3.850000e+001 -3.950000e+001  0.000000e+000
      vertex  4.650000e+001 -4.750000e+001  0.000000e+000
      vertex -4.050000e+001 -4.600000e+001  0.000000e+000
    endloop
  endfacet
  facet normal  0.000000e+000  0.000000e+000 -1.000000e+000
    outer loop
      vertex -4.050000e+001 -4.600000e+001  0.000000e+000
      vertex  4.650000e+001 -4.750000e+001  0.000000e+000
      vertex -5.350000e+001 -4.750000e+001  0.000000e+000
    endloop
  endfacet
  facet normal  0.000000e+000  0.000000e+000 -1.000000e+000
    outer loop
      vertex -4.050000e+001 -4.600000e+001  0.000000e+000
      vertex -5.350000e+001 -4.750000e+001  0.000000e+000
      vertex -5.350000e+001 -4.600000e+001  0.000000e+000
    endloop
  endfacet
  facet normal  0.000000e+000  0.000000e+000 -1.000000e+000
    outer loop
      vertex -3.850000e+001 -3.950000e+001  0.000000e+000
      vertex -4.050000e+001 -4.600000e+001  0.000000e+000
      vertex -3.850000e+001  3.950000e+001  0.000000e+000
    endloop
  endfacet
  facet normal  0.000000e+000  0.000000e+000 -1.000000e+000
    outer loop
      vertex -3.850000e+001  3.950000e+001  0.000000e+000
      vertex -4.050000e+001 -4.600000e+001  0.000000e+000
      vertex -4.050000e+001  4.600000e+001  0.000000e+000
    endloop
  endfacet
  facet normal  0.000000e+000  0.000000e+000 -1.000000e+000
    outer loop
      vertex -3.850000e+001  3.950000e+001  0.000000e+000
      vertex -4.050000e+001  4.600000e+001  0.000000e+000
      vertex  3.850000e+001  3.950000e+001  0.000000e+000
    endloop
  endfacet
  facet normal  0.000000e+000  1.000000e+000  0.000000e+000
    outer loop
      vertex -4.050000e+001 -4.600000e+001  3.000000e+000
      vertex -4.050000e+001 -4.600000e+001  0.000000e+000
      vertex -5.350000e+001 -4.600000e+001  3.000000e+000
    endloop
  endfacet
  facet normal  0.000000e+000  1.000000e+000  0.000000e+000
    outer loop
      vertex -5.350000e+001 -4.600000e+001  3.000000e+000
      vertex -4.050000e+001 -4.600000e+001  0.000000e+000
      vertex -5.350000e+001 -4.600000e+001  0.000000e+000
    endloop
  endfacet
  facet normal  0.000000e+000 -1.000000e+000  0.000000e+000
    outer loop
      vertex -5.350000e+001  4.600000e+001  3.000000e+000
      vertex -5.350000e+001  4.600000e+001  0.000000e+000
      vertex -4.050000e+001  4.600000e+001  3.000000e+000
    endloop
  endfacet
  facet normal  0.000000e+000 -1.000000e+000  0.000000e+000
    outer loop
      vertex -4.050000e+001  4.600000e+001  3.000000e+000
      vertex -5.350000e+001  4.600000e+001  0.000000e+000
      vertex -4.050000e+001  4.600000e+001  0.000000e+000
    endloop
  endfacet
  facet normal  1.000000e+000  0.000000e+000  0.000000e+000
    outer loop
      vertex -3.850000e+001 -3.950000e+001  2.000000e+000
      vertex -3.850000e+001 -3.950000e+001  0.000000e+000
      vertex -3.850000e+001  3.950000e+001  2.000000e+000
    endloop
  endfacet
  facet normal  1.000000e+000  0.000000e+000  0.000000e+000
    outer loop
      vertex -3.850000e+001  3.950000e+001  2.000000e+000
      vertex -3.850000e+001 -3.950000e+001  0.000000e+000
      vertex -3.850000e+001  3.950000e+001  0.000000e+000
    endloop
  endfacet
  facet normal  0.000000e+000  0.000000e+000  1.000000e+000
    outer loop
      vertex  4.350000e+001 -4.450000e+001  2.000000e+000
      vertex  3.950000e+001 -3.950000e+001  2.000000e+000
      vertex -4.050000e+001 -4.450000e+001  2.000000e+000
    endloop
  endfacet
  facet normal  0.000000e+000  0.000000e+000  1.000000e+000
    outer loop
      vertex -4.050000e+001 -4.450000e+001  2.000000e+000
      vertex  3.950000e+001 -3.950000e+001  2.000000e+000
      vertex -3.850000e+001 -3.950000e+001  2.000000e+000
    endloop
  endfacet
  facet normal  0.000000e+000  0.000000e+000  1.000000e+000
    outer loop
      vertex -4.050000e+001 -4.450000e+001  2.000000e+000
      vertex -3.850000e+001 -3.950000e+001  2.000000e+000
      vertex -4.050000e+001  4.450000e+001  2.000000e+000
    endloop
  endfacet
  facet normal  0.000000e+000  0.000000e+000  1.000000e+000
    outer loop
      vertex -4.050000e+001  4.450000e+001  2.000000e+000
      vertex -3.850000e+001 -3.950000e+001  2.000000e+000
      vertex -3.850000e+001  3.950000e+001  2.000000e+000
    endloop
  endfacet
  facet normal  0.000000e+000  0.000000e+000  1.000000e+000
    outer loop
      vertex -4.050000e+001  4.450000e+001  2.000000e+000
      vertex -3.850000e+001  3.950000e+001  2.000000e+000
      vertex  4.350000e+001  4.450000e+001  2.000000e+000
    endloop
  endfacet
  facet normal  0.000000e+000  0.000000e+000  1.000000e+000
    outer loop
      vertex  4.350000e+001  4.450000e+001  2.000000e+000
      vertex -3.850000e+001  3.950000e+001  2.000000e+000
      vertex  3.950000e+001  3.950000e+001  2.000000e+000
    endloop
  endfacet
  facet normal  0.000000e+000  0.000000e+000  1.000000e+000
    outer loop
      vertex  4.350000e+001  4.450000e+001  2.000000e+000
      vertex  3.950000e+001  3.950000e+001  2.000000e+000
      vertex  4.350000e+001 -4.450000e+001  2.000000e+000
    endloop
  endfacet
  facet normal  0.000000e+000  0.000000e+000  1.000000e+000
    outer loop
      vertex  4.350000e+001 -4.450000e+001  2.000000e+000
      vertex  3.950000e+001  3.950000e+001  2.000000e+000
      vertex  3.950000e+001 -3.950000e+001  2.000000e+000
    endloop
  endfacet
  facet normal -1.000000e+000  0.000000e+000  0.000000e+000
    outer loop
      vertex  3.850000e+001  3.950000e+001  1.000000e+000
      vertex  3.850000e+001  3.950000e+001  0.000000e+000
      vertex  3.850000e+001 -3.950000e+001  1.000000e+000
    endloop
  endfacet
  facet normal -1.000000e+000  0.000000e+000  0.000000e+000
    outer loop
      vertex  3.850000e+001 -3.950000e+001  1.000000e+000
      vertex  3.850000e+001  3.950000e+001  0.000000e+000
      vertex  3.850000e+001 -3.950000e+001  0.000000e+000
    endloop
  endfacet
  facet normal  0.000000e+000  1.000000e+000  0.000000e+000
    outer loop
      vertex -3.850000e+001 -3.950000e+001  2.000000e+000
      vertex  3.950000e+001 -3.950000e+001  2.000000e+000
      vertex  3.850000e+001 -3.950000e+001  1.000000e+000
    endloop
  endfacet
  facet normal  0.000000e+000  1.000000e+000  0.000000e+000
    outer loop
      vertex -3.850000e+001 -3.950000e+001  2.000000e+000
      vertex  3.850000e+001 -3.950000e+001  1.000000e+000
      vertex  3.850000e+001 -3.950000e+001  0.000000e+000
    endloop
  endfacet
  facet normal  0.000000e+000  1.000000e+000  0.000000e+000
    outer loop
      vertex -3.850000e+001 -3.950000e+001  2.000000e+000
      vertex  3.850000e+001 -3.950000e+001  0.000000e+000
      vertex -3.850000e+001 -3.950000e+001  0.000000e+000
    endloop
  endfacet
  facet normal  0.000000e+000 -1.000000e+000  0.000000e+000
    outer loop
      vertex -3.850000e+001  3.950000e+001  0.000000e+000
      vertex  3.850000e+001  3.950000e+001  0.000000e+000
      vertex -3.850000e+001  3.950000e+001  2.000000e+000
    endloop
  endfacet
  facet normal  0.000000e+000 -1.000000e+000  0.000000e+000
    outer loop
      vertex -3.850000e+001  3.950000e+001  2.000000e+000
      vertex  3.850000e+001  3.950000e+001  0.000000e+000
      vertex  3.850000e+001  3.950000e+001  1.000000e+000
    endloop
  endfacet
  facet normal  0.000000e+000 -1.000000e+000  0.000000e+000
    outer loop
      vertex -3.850000e+001  3.950000e+001  2.000000e+000
      vertex  3.850000e+001  3.950000e+001  1.000000e+000
      vertex  3.950000e+001  3.950000e+001  2.000000e+000
    endloop
  endfacet
  facet normal -7.071068e-001  0.000000e+000  7.071068e-001
    outer loop
      vertex  3.850000e+001 -3.950000e+001  1.000000e+000
      vertex  3.950000e+001 -3.950000e+001  2.000000e+000
      vertex  3.850000e+001  3.950000e+001  1.000000e+000
    endloop
  endfacet
  facet normal -7.071068e-001  0.000000e+000  7.071068e-001
    outer loop
      vertex  3.850000e+001  3.950000e+001  1.000000e+000
      vertex  3.950000e+001 -3.950000e+001  2.000000e+000
      vertex  3.950000e+001  3.950000e+001  2.000000e+000
    endloop
  endfacet
  facet normal -1.000000e+000  0.000000e+000  0.000000e+000
    outer loop
      vertex -4.050000e+001  4.450000e+001  3.000000e+000
      vertex -4.050000e+001  4.600000e+001  3.000000e+000
      vertex -4.050000e+001  4.450000e+001  2.000000e+000
    endloop
  endfacet
  facet normal -1.000000e+000  0.000000e+000  0.000000e+000
    outer loop
      vertex -4.050000e+001  4.450000e+001  2.000000e+000
      vertex -4.050000e+001  4.600000e+001  3.000000e+000
      vertex -4.050000e+001  4.600000e+001  0.000000e+000
    endloop
  endfacet
  facet normal -1.000000e+000  0.000000e+000  0.000000e+000
    outer loop
      vertex -4.050000e+001  4.450000e+001  2.000000e+000
      vertex -4.050000e+001  4.600000e+001  0.000000e+000
      vertex -4.050000e+001 -4.450000e+001  2.000000e+000
    endloop
  endfacet
  facet normal -1.000000e+000  0.000000e+000  0.000000e+000
    outer loop
      vertex -4.050000e+001 -4.450000e+001  2.000000e+000
      vertex -4.050000e+001  4.600000e+001  0.000000e+000
      vertex -4.050000e+001 -4.600000e+001  0.000000e+000
    endloop
  endfacet
  facet normal -1.000000e+000  0.000000e+000  0.000000e+000
    outer loop
      vertex -4.050000e+001 -4.450000e+001  2.000000e+000
      vertex -4.050000e+001 -4.600000e+001  0.000000e+000
      vertex -4.050000e+001 -4.450000e+001  3.000000e+000
    endloop
  endfacet
  facet normal -1.000000e+000  0.000000e+000  0.000000e+000
    outer loop
      vertex -4.050000e+001 -4.450000e+001  3.000000e+000
      vertex -4.050000e+001 -4.600000e+001  0.000000e+000
      vertex -4.050000e+001 -4.600000e+001  3.000000e+000
    endloop
  endfacet
  facet normal  0.000000e+000 -1.000000e+000  0.000000e+000
    outer loop
      vertex -4.050000e+001  4.450000e+001  3.000000e+000
      vertex -4.050000e+001  4.450000e+001  2.000000e+000
      vertex  4.350000e+001  4.450000e+001  3.000000e+000
    endloop
  endfacet
  facet normal  0.000000e+000 -1.000000e+000  0.000000e+000
    outer loop
      vertex  4.350000e+001  4.450000e+001  3.000000e+000
      vertex -4.050000e+001  4.450000e+001  2.000000e+000
      vertex  4.350000e+001  4.450000e+001  2.000000e+000
    endloop
  endfacet
  facet normal  0.000000e+000 -1.000000e+000  0.000000e+000
    outer loop
      vertex -5.650000e+001  4.450000e+001  3.000000e+000
      vertex -5.650000e+001  4.450000e+001  2.000000e+000
      vertex -5.350000e+001  4.450000e+001  3.000000e+000
    endloop
  endfacet
  facet normal  0.000000e+000 -1.000000e+000  0.000000e+000
    outer loop
      vertex -5.350000e+001  4.450000e+001  3.000000e+000
      vertex -5.650000e+001  4.450000e+001  2.000000e+000
      vertex -5.350000e+001  4.450000e+001  2.000000e+000
    endloop
  endfacet
  facet normal  0.000000e+000  1.000000e+000  0.000000e+000
    outer loop
      vertex -5.350000e+001 -4.450000e+001  3.000000e+000
      vertex -5.350000e+001 -4.450000e+001  2.000000e+000
      vertex -5.650000e+001 -4.450000e+001  3.000000e+000
    endloop
  endfacet
  facet normal  0.000000e+000  1.000000e+000  0.000000e+000
    outer loop
      vertex -5.650000e+001 -4.450000e+001  3.000000e+000
      vertex -5.350000e+001 -4.450000e+001  2.000000e+000
      vertex -5.650000e+001 -4.450000e+001  2.000000e+000
    endloop
  endfacet
  facet normal  0.000000e+000  1.000000e+000  0.000000e+000
    outer loop
      vertex  4.350000e+001 -4.450000e+001  3.000000e+000
      vertex  4.350000e+001 -4.450000e+001  2.000000e+000
      vertex -4.050000e+001 -4.450000e+001  3.000000e+000
    endloop
  endfacet
  facet normal  0.000000e+000  1.000000e+000  0.000000e+000
    outer loop
      vertex -4.050000e+001 -4.450000e+001  3.000000e+000
      vertex  4.350000e+001 -4.450000e+001  2.000000e+000
      vertex -4.050000e+001 -4.450000e+001  2.000000e+000
    endloop
  endfacet
  facet normal  0.000000e+000  0.000000e+000  1.000000e+000
    outer loop
      vertex -5.650000e+001 -4.450000e+001  2.000000e+000
      vertex -5.350000e+001 -4.450000e+001  2.000000e+000
      vertex -5.650000e+001  4.450000e+001  2.000000e+000
    endloop
  endfacet
  facet normal  0.000000e+000  0.000000e+000  1.000000e+000
    outer loop
      vertex -5.650000e+001  4.450000e+001  2.000000e+000
      vertex -5.350000e+001 -4.450000e+001  2.000000e+000
      vertex -5.350000e+001  4.450000e+001  2.000000e+000
    endloop
  endfacet
  facet normal -1.000000e+000  0.000000e+000  0.000000e+000
    outer loop
      vertex  4.350000e+001  4.450000e+001  3.000000e+000
      vertex  4.350000e+001  4.450000e+001  2.000000e+000
      vertex  4.350000e+001 -4.450000e+001  3.000000e+000
    endloop
  endfacet
  facet normal -1.000000e+000  0.000000e+000  0.000000e+000
    outer loop
      vertex  4.350000e+001 -4.450000e+001  3.000000e+000
      vertex  4.350000e+001  4.450000e+001  2.000000e+000
      vertex  4.350000e+001 -4.450000e+001  2.000000e+000
    endloop
  endfacet
  facet normal  0.000000e+000  1.000000e+000  0.000000e+000
    outer loop
      vertex -5.650000e+001  7.050000e+001  0.000000e+000
      vertex -5.650000e+001  7.050000e+001  3.000000e+000
      vertex  4.650000e+001  7.050000e+001  0.000000e+000
    endloop
  endfacet
  facet normal  0.000000e+000  1.000000e+000  0.000000e+000
    outer loop
      vertex  4.650000e+001  7.050000e+001  0.000000e+000
      vertex -5.650000e+001  7.050000e+001  3.000000e+000
      vertex  4.650000e+001  7.050000e+001  3.000000e+000
    endloop
  endfacet
  facet normal  1.000000e+000  0.000000e+000  0.000000e+000
    outer loop
      vertex  4.650000e+001 -4.750000e+001  3.000000e+000
      vertex  4.650000e+001 -4.750000e+001  0.000000e+000
      vertex  4.650000e+001  7.050000e+001  3.000000e+000
    endloop
  endfacet
  facet normal  1.000000e+000  0.000000e+000  0.000000e+000
    outer loop
      vertex  4.650000e+001  7.050000e+001  3.000000e+000
      vertex  4.650000e+001 -4.750000e+001  0.000000e+000
      vertex  4.650000e+001  7.050000e+001  0.000000e+000
    endloop
  endfacet
endsolid CATIA STL
