solid CATIA STL
  facet normal  0.000000e+000 -1.000000e+000  0.000000e+000
    outer loop
      vertex  5.000000e+000  3.850000e+001  3.950000e+001
      vertex  2.000000e+000  3.850000e+001  3.950000e+001
      vertex  5.000000e+000  3.850000e+001 -3.950000e+001
    endloop
  endfacet
  facet normal  0.000000e+000 -1.000000e+000  0.000000e+000
    outer loop
      vertex  5.000000e+000  3.850000e+001 -3.950000e+001
      vertex  2.000000e+000  3.850000e+001  3.950000e+001
      vertex  2.000000e+000  3.850000e+001 -3.950000e+001
    endloop
  endfacet
  facet normal  0.000000e+000  0.000000e+000  1.000000e+000
    outer loop
      vertex  5.000000e+000  3.850000e+001 -3.950000e+001
      vertex  2.000000e+000  3.850000e+001 -3.950000e+001
      vertex  5.000000e+000 -3.850000e+001 -3.950000e+001
    endloop
  endfacet
  facet normal  0.000000e+000  0.000000e+000  1.000000e+000
    outer loop
      vertex  5.000000e+000 -3.850000e+001 -3.950000e+001
      vertex  2.000000e+000  3.850000e+001 -3.950000e+001
      vertex  2.000000e+000 -3.850000e+001 -3.950000e+001
    endloop
  endfacet
  facet normal  0.000000e+000  1.000000e+000  0.000000e+000
    outer loop
      vertex  5.000000e+000 -3.850000e+001 -3.950000e+001
      vertex  2.000000e+000 -3.850000e+001 -3.950000e+001
      vertex  5.000000e+000 -3.850000e+001  3.950000e+001
    endloop
  endfacet
  facet normal  0.000000e+000  1.000000e+000  0.000000e+000
    outer loop
      vertex  5.000000e+000 -3.850000e+001  3.950000e+001
      vertex  2.000000e+000 -3.850000e+001 -3.950000e+001
      vertex  2.000000e+000 -3.850000e+001  3.950000e+001
    endloop
  endfacet
  facet normal  0.000000e+000  0.000000e+000 -1.000000e+000
    outer loop
      vertex  5.000000e+000 -3.850000e+001  3.950000e+001
      vertex  2.000000e+000 -3.850000e+001  3.950000e+001
      vertex  5.000000e+000  3.850000e+001  3.950000e+001
    endloop
  endfacet
  facet normal  0.000000e+000  0.000000e+000 -1.000000e+000
    outer loop
      vertex  5.000000e+000  3.850000e+001  3.950000e+001
      vertex  2.000000e+000 -3.850000e+001  3.950000e+001
      vertex  2.000000e+000  3.850000e+001  3.950000e+001
    endloop
  endfacet
  facet normal -1.000000e+000  0.000000e+000  0.000000e+000
    outer loop
      vertex  0.000000e+000  4.900000e+001 -4.400000e+001
      vertex  0.000000e+000  5.350000e+001 -6.150000e+001
      vertex  0.000000e+000 -4.900000e+001 -4.400000e+001
    endloop
  endfacet
  facet normal -1.000000e+000  0.000000e+000  0.000000e+000
    outer loop
      vertex  0.000000e+000 -4.900000e+001 -4.400000e+001
      vertex  0.000000e+000  5.350000e+001 -6.150000e+001
      vertex  0.000000e+000 -5.350000e+001 -6.150000e+001
    endloop
  endfacet
  facet normal -1.000000e+000  0.000000e+000  0.000000e+000
    outer loop
      vertex  0.000000e+000 -4.900000e+001 -4.400000e+001
      vertex  0.000000e+000 -5.350000e+001 -6.150000e+001
      vertex  0.000000e+000 -4.900000e+001  4.400000e+001
    endloop
  endfacet
  facet normal -1.000000e+000  0.000000e+000  0.000000e+000
    outer loop
      vertex  0.000000e+000 -4.900000e+001  4.400000e+001
      vertex  0.000000e+000 -5.350000e+001 -6.150000e+001
      vertex  0.000000e+000 -5.350000e+001  6.150000e+001
    endloop
  endfacet
  facet normal -1.000000e+000  0.000000e+000  0.000000e+000
    outer loop
      vertex  0.000000e+000 -4.900000e+001  4.400000e+001
      vertex  0.000000e+000 -5.350000e+001  6.150000e+001
      vertex  0.000000e+000  4.900000e+001  4.400000e+001
    endloop
  endfacet
  facet normal -1.000000e+000  0.000000e+000  0.000000e+000
    outer loop
      vertex  0.000000e+000  4.900000e+001  4.400000e+001
      vertex  0.000000e+000 -5.350000e+001  6.150000e+001
      vertex  0.000000e+000  5.350000e+001  6.150000e+001
    endloop
  endfacet
  facet normal -1.000000e+000  0.000000e+000  0.000000e+000
    outer loop
      vertex  0.000000e+000  4.900000e+001  4.400000e+001
      vertex  0.000000e+000  5.350000e+001  6.150000e+001
      vertex  0.000000e+000  4.900000e+001 -4.400000e+001
    endloop
  endfacet
  facet normal -1.000000e+000  0.000000e+000  0.000000e+000
    outer loop
      vertex  0.000000e+000  4.900000e+001 -4.400000e+001
      vertex  0.000000e+000  5.350000e+001  6.150000e+001
      vertex  0.000000e+000  5.350000e+001 -6.150000e+001
    endloop
  endfacet
  facet normal -1.000000e+000  0.000000e+000  0.000000e+000
    outer loop
      vertex  2.000000e+000 -4.900000e+001 -4.400000e+001
      vertex  2.000000e+000 -3.850000e+001 -3.950000e+001
      vertex  2.000000e+000  4.900000e+001 -4.400000e+001
    endloop
  endfacet
  facet normal -1.000000e+000  0.000000e+000  0.000000e+000
    outer loop
      vertex  2.000000e+000  4.900000e+001 -4.400000e+001
      vertex  2.000000e+000 -3.850000e+001 -3.950000e+001
      vertex  2.000000e+000  3.850000e+001 -3.950000e+001
    endloop
  endfacet
  facet normal -1.000000e+000  0.000000e+000  0.000000e+000
    outer loop
      vertex  2.000000e+000  4.900000e+001 -4.400000e+001
      vertex  2.000000e+000  3.850000e+001 -3.950000e+001
      vertex  2.000000e+000  4.900000e+001  4.400000e+001
    endloop
  endfacet
  facet normal -1.000000e+000  0.000000e+000  0.000000e+000
    outer loop
      vertex  2.000000e+000  4.900000e+001  4.400000e+001
      vertex  2.000000e+000  3.850000e+001 -3.950000e+001
      vertex  2.000000e+000  3.850000e+001  3.950000e+001
    endloop
  endfacet
  facet normal -1.000000e+000  0.000000e+000  0.000000e+000
    outer loop
      vertex  2.000000e+000  4.900000e+001  4.400000e+001
      vertex  2.000000e+000  3.850000e+001  3.950000e+001
      vertex  2.000000e+000 -4.900000e+001  4.400000e+001
    endloop
  endfacet
  facet normal -1.000000e+000  0.000000e+000  0.000000e+000
    outer loop
      vertex  2.000000e+000 -4.900000e+001  4.400000e+001
      vertex  2.000000e+000  3.850000e+001  3.950000e+001
      vertex  2.000000e+000 -3.850000e+001  3.950000e+001
    endloop
  endfacet
  facet normal -1.000000e+000  0.000000e+000  0.000000e+000
    outer loop
      vertex  2.000000e+000 -4.900000e+001  4.400000e+001
      vertex  2.000000e+000 -3.850000e+001  3.950000e+001
      vertex  2.000000e+000 -4.900000e+001 -4.400000e+001
    endloop
  endfacet
  facet normal -1.000000e+000  0.000000e+000  0.000000e+000
    outer loop
      vertex  2.000000e+000 -4.900000e+001 -4.400000e+001
      vertex  2.000000e+000 -3.850000e+001  3.950000e+001
      vertex  2.000000e+000 -3.850000e+001 -3.950000e+001
    endloop
  endfacet
  facet normal  0.000000e+000  1.000000e+000  0.000000e+000
    outer loop
      vertex  0.000000e+000 -4.900000e+001  4.400000e+001
      vertex  2.000000e+000 -4.900000e+001  4.400000e+001
      vertex  0.000000e+000 -4.900000e+001 -4.400000e+001
    endloop
  endfacet
  facet normal  0.000000e+000  1.000000e+000  0.000000e+000
    outer loop
      vertex  0.000000e+000 -4.900000e+001 -4.400000e+001
      vertex  2.000000e+000 -4.900000e+001  4.400000e+001
      vertex  2.000000e+000 -4.900000e+001 -4.400000e+001
    endloop
  endfacet
  facet normal  0.000000e+000  0.000000e+000  1.000000e+000
    outer loop
      vertex  0.000000e+000 -4.900000e+001 -4.400000e+001
      vertex  2.000000e+000 -4.900000e+001 -4.400000e+001
      vertex  0.000000e+000  4.900000e+001 -4.400000e+001
    endloop
  endfacet
  facet normal  0.000000e+000  0.000000e+000  1.000000e+000
    outer loop
      vertex  0.000000e+000  4.900000e+001 -4.400000e+001
      vertex  2.000000e+000 -4.900000e+001 -4.400000e+001
      vertex  2.000000e+000  4.900000e+001 -4.400000e+001
    endloop
  endfacet
  facet normal  0.000000e+000 -1.000000e+000  0.000000e+000
    outer loop
      vertex  0.000000e+000  4.900000e+001 -4.400000e+001
      vertex  2.000000e+000  4.900000e+001 -4.400000e+001
      vertex  0.000000e+000  4.900000e+001  4.400000e+001
    endloop
  endfacet
  facet normal  0.000000e+000 -1.000000e+000  0.000000e+000
    outer loop
      vertex  0.000000e+000  4.900000e+001  4.400000e+001
      vertex  2.000000e+000  4.900000e+001 -4.400000e+001
      vertex  2.000000e+000  4.900000e+001  4.400000e+001
    endloop
  endfacet
  facet normal  0.000000e+000  0.000000e+000 -1.000000e+000
    outer loop
      vertex  0.000000e+000  4.900000e+001  4.400000e+001
      vertex  2.000000e+000  4.900000e+001  4.400000e+001
      vertex  0.000000e+000 -4.900000e+001  4.400000e+001
    endloop
  endfacet
  facet normal  0.000000e+000  0.000000e+000 -1.000000e+000
    outer loop
      vertex  0.000000e+000 -4.900000e+001  4.400000e+001
      vertex  2.000000e+000  4.900000e+001  4.400000e+001
      vertex  2.000000e+000 -4.900000e+001  4.400000e+001
    endloop
  endfacet
  facet normal  0.000000e+000  0.000000e+000  1.000000e+000
    outer loop
      vertex  2.000000e+000 -6.000000e+001  6.800000e+001
      vertex  5.000000e+000 -6.000000e+001  6.800000e+001
      vertex  2.000000e+000  6.000000e+001  6.800000e+001
    endloop
  endfacet
  facet normal  0.000000e+000  0.000000e+000  1.000000e+000
    outer loop
      vertex  2.000000e+000  6.000000e+001  6.800000e+001
      vertex  5.000000e+000 -6.000000e+001  6.800000e+001
      vertex  5.000000e+000  6.000000e+001  6.800000e+001
    endloop
  endfacet
  facet normal  0.000000e+000 -1.000000e+000  0.000000e+000
    outer loop
      vertex  2.000000e+000 -6.000000e+001 -6.800000e+001
      vertex  5.000000e+000 -6.000000e+001 -6.800000e+001
      vertex  2.000000e+000 -6.000000e+001  6.800000e+001
    endloop
  endfacet
  facet normal  0.000000e+000 -1.000000e+000  0.000000e+000
    outer loop
      vertex  2.000000e+000 -6.000000e+001  6.800000e+001
      vertex  5.000000e+000 -6.000000e+001 -6.800000e+001
      vertex  5.000000e+000 -6.000000e+001  6.800000e+001
    endloop
  endfacet
  facet normal  0.000000e+000  0.000000e+000 -1.000000e+000
    outer loop
      vertex  2.000000e+000  6.000000e+001 -6.800000e+001
      vertex  5.000000e+000  6.000000e+001 -6.800000e+001
      vertex  2.000000e+000 -6.000000e+001 -6.800000e+001
    endloop
  endfacet
  facet normal  0.000000e+000  0.000000e+000 -1.000000e+000
    outer loop
      vertex  2.000000e+000 -6.000000e+001 -6.800000e+001
      vertex  5.000000e+000  6.000000e+001 -6.800000e+001
      vertex  5.000000e+000 -6.000000e+001 -6.800000e+001
    endloop
  endfacet
  facet normal  0.000000e+000  1.000000e+000  0.000000e+000
    outer loop
      vertex  2.000000e+000  6.000000e+001  6.800000e+001
      vertex  5.000000e+000  6.000000e+001  6.800000e+001
      vertex  2.000000e+000  6.000000e+001 -6.800000e+001
    endloop
  endfacet
  facet normal  0.000000e+000  1.000000e+000  0.000000e+000
    outer loop
      vertex  2.000000e+000  6.000000e+001 -6.800000e+001
      vertex  5.000000e+000  6.000000e+001  6.800000e+001
      vertex  5.000000e+000  6.000000e+001 -6.800000e+001
    endloop
  endfacet
  facet normal -1.000000e+000  0.000000e+000  0.000000e+000
    outer loop
      vertex  2.000000e+000 -6.000000e+001 -6.800000e+001
      vertex  2.000000e+000 -5.350000e+001 -6.150000e+001
      vertex  2.000000e+000  6.000000e+001 -6.800000e+001
    endloop
  endfacet
  facet normal -1.000000e+000  0.000000e+000  0.000000e+000
    outer loop
      vertex  2.000000e+000  6.000000e+001 -6.800000e+001
      vertex  2.000000e+000 -5.350000e+001 -6.150000e+001
      vertex  2.000000e+000  5.350000e+001 -6.150000e+001
    endloop
  endfacet
  facet normal -1.000000e+000  0.000000e+000  0.000000e+000
    outer loop
      vertex  2.000000e+000  6.000000e+001 -6.800000e+001
      vertex  2.000000e+000  5.350000e+001 -6.150000e+001
      vertex  2.000000e+000  6.000000e+001  6.800000e+001
    endloop
  endfacet
  facet normal -1.000000e+000  0.000000e+000  0.000000e+000
    outer loop
      vertex  2.000000e+000  6.000000e+001  6.800000e+001
      vertex  2.000000e+000  5.350000e+001 -6.150000e+001
      vertex  2.000000e+000  5.350000e+001  6.150000e+001
    endloop
  endfacet
  facet normal -1.000000e+000  0.000000e+000  0.000000e+000
    outer loop
      vertex  2.000000e+000  6.000000e+001  6.800000e+001
      vertex  2.000000e+000  5.350000e+001  6.150000e+001
      vertex  2.000000e+000 -6.000000e+001  6.800000e+001
    endloop
  endfacet
  facet normal -1.000000e+000  0.000000e+000  0.000000e+000
    outer loop
      vertex  2.000000e+000 -6.000000e+001  6.800000e+001
      vertex  2.000000e+000  5.350000e+001  6.150000e+001
      vertex  2.000000e+000 -5.350000e+001  6.150000e+001
    endloop
  endfacet
  facet normal -1.000000e+000  0.000000e+000  0.000000e+000
    outer loop
      vertex  2.000000e+000 -6.000000e+001  6.800000e+001
      vertex  2.000000e+000 -5.350000e+001  6.150000e+001
      vertex  2.000000e+000 -6.000000e+001 -6.800000e+001
    endloop
  endfacet
  facet normal -1.000000e+000  0.000000e+000  0.000000e+000
    outer loop
      vertex  2.000000e+000 -6.000000e+001 -6.800000e+001
      vertex  2.000000e+000 -5.350000e+001  6.150000e+001
      vertex  2.000000e+000 -5.350000e+001 -6.150000e+001
    endloop
  endfacet
  facet normal  0.000000e+000  0.000000e+000  1.000000e+000
    outer loop
      vertex  2.000000e+000  5.350000e+001  6.150000e+001
      vertex  0.000000e+000  5.350000e+001  6.150000e+001
      vertex  2.000000e+000 -5.350000e+001  6.150000e+001
    endloop
  endfacet
  facet normal  0.000000e+000  0.000000e+000  1.000000e+000
    outer loop
      vertex  2.000000e+000 -5.350000e+001  6.150000e+001
      vertex  0.000000e+000  5.350000e+001  6.150000e+001
      vertex  0.000000e+000 -5.350000e+001  6.150000e+001
    endloop
  endfacet
  facet normal  0.000000e+000  1.000000e+000  0.000000e+000
    outer loop
      vertex  2.000000e+000  5.350000e+001 -6.150000e+001
      vertex  0.000000e+000  5.350000e+001 -6.150000e+001
      vertex  2.000000e+000  5.350000e+001  6.150000e+001
    endloop
  endfacet
  facet normal  0.000000e+000  1.000000e+000  0.000000e+000
    outer loop
      vertex  2.000000e+000  5.350000e+001  6.150000e+001
      vertex  0.000000e+000  5.350000e+001 -6.150000e+001
      vertex  0.000000e+000  5.350000e+001  6.150000e+001
    endloop
  endfacet
  facet normal  0.000000e+000  0.000000e+000 -1.000000e+000
    outer loop
      vertex  2.000000e+000 -5.350000e+001 -6.150000e+001
      vertex  0.000000e+000 -5.350000e+001 -6.150000e+001
      vertex  2.000000e+000  5.350000e+001 -6.150000e+001
    endloop
  endfacet
  facet normal  0.000000e+000  0.000000e+000 -1.000000e+000
    outer loop
      vertex  2.000000e+000  5.350000e+001 -6.150000e+001
      vertex  0.000000e+000 -5.350000e+001 -6.150000e+001
      vertex  0.000000e+000  5.350000e+001 -6.150000e+001
    endloop
  endfacet
  facet normal  0.000000e+000 -1.000000e+000  0.000000e+000
    outer loop
      vertex  2.000000e+000 -5.350000e+001  6.150000e+001
      vertex  0.000000e+000 -5.350000e+001  6.150000e+001
      vertex  2.000000e+000 -5.350000e+001 -6.150000e+001
    endloop
  endfacet
  facet normal  0.000000e+000 -1.000000e+000  0.000000e+000
    outer loop
      vertex  2.000000e+000 -5.350000e+001 -6.150000e+001
      vertex  0.000000e+000 -5.350000e+001  6.150000e+001
      vertex  0.000000e+000 -5.350000e+001 -6.150000e+001
    endloop
  endfacet
  facet normal  1.000000e+000  0.000000e+000  0.000000e+000
    outer loop
      vertex  5.000000e+000  6.000000e+001 -6.800000e+001
      vertex  5.000000e+000  3.850000e+001 -3.950000e+001
      vertex  5.000000e+000 -6.000000e+001 -6.800000e+001
    endloop
  endfacet
  facet normal  1.000000e+000  0.000000e+000  0.000000e+000
    outer loop
      vertex  5.000000e+000 -6.000000e+001 -6.800000e+001
      vertex  5.000000e+000  3.850000e+001 -3.950000e+001
      vertex  5.000000e+000 -3.850000e+001 -3.950000e+001
    endloop
  endfacet
  facet normal  1.000000e+000  0.000000e+000  0.000000e+000
    outer loop
      vertex  5.000000e+000 -6.000000e+001 -6.800000e+001
      vertex  5.000000e+000 -3.850000e+001 -3.950000e+001
      vertex  5.000000e+000 -6.000000e+001  6.800000e+001
    endloop
  endfacet
  facet normal  1.000000e+000  0.000000e+000  0.000000e+000
    outer loop
      vertex  5.000000e+000 -6.000000e+001  6.800000e+001
      vertex  5.000000e+000 -3.850000e+001 -3.950000e+001
      vertex  5.000000e+000 -3.850000e+001  3.950000e+001
    endloop
  endfacet
  facet normal  1.000000e+000  0.000000e+000  0.000000e+000
    outer loop
      vertex  5.000000e+000 -6.000000e+001  6.800000e+001
      vertex  5.000000e+000 -3.850000e+001  3.950000e+001
      vertex  5.000000e+000  6.000000e+001  6.800000e+001
    endloop
  endfacet
  facet normal  1.000000e+000  0.000000e+000  0.000000e+000
    outer loop
      vertex  5.000000e+000  6.000000e+001  6.800000e+001
      vertex  5.000000e+000 -3.850000e+001  3.950000e+001
      vertex  5.000000e+000  3.850000e+001  3.950000e+001
    endloop
  endfacet
  facet normal  1.000000e+000  0.000000e+000  0.000000e+000
    outer loop
      vertex  5.000000e+000  6.000000e+001  6.800000e+001
      vertex  5.000000e+000  3.850000e+001  3.950000e+001
      vertex  5.000000e+000  6.000000e+001 -6.800000e+001
    endloop
  endfacet
  facet normal  1.000000e+000  0.000000e+000  0.000000e+000
    outer loop
      vertex  5.000000e+000  6.000000e+001 -6.800000e+001
      vertex  5.000000e+000  3.850000e+001  3.950000e+001
      vertex  5.000000e+000  3.850000e+001 -3.950000e+001
    endloop
  endfacet
endsolid CATIA STL
