solid CATIA STL
  facet normal  0.000000e+000  0.000000e+000 -1.000000e+000
    outer loop
      vertex  1.485355e+001  1.464466e-001  0.000000e+000
      vertex  1.450000e+001  0.000000e+000  0.000000e+000
      vertex  4.000000e+000  0.000000e+000  0.000000e+000
    endloop
  endfacet
  facet normal -2.220446e-015  1.645632e-013 -1.000000e+000
    outer loop
      vertex  1.485355e+001  1.464466e-001  0.000000e+000
      vertex  4.000000e+000  0.000000e+000  0.000000e+000
      vertex  3.500000e+000  0.000000e+000  1.110223e-015
    endloop
  endfacet
  facet normal  0.000000e+000 -7.581076e-015 -1.000000e+000
    outer loop
      vertex  1.485355e+001  1.464466e-001  0.000000e+000
      vertex  3.500000e+000  0.000000e+000  1.110223e-015
      vertex -3.500000e+000  0.000000e+000  1.110223e-015
    endloop
  endfacet
  facet normal  2.220446e-015 -2.858605e-013 -1.000000e+000
    outer loop
      vertex  1.485355e+001  1.464466e-001  0.000000e+000
      vertex -3.500000e+000  0.000000e+000  1.110223e-015
      vertex -4.000000e+000  0.000000e+000  0.000000e+000
    endloop
  endfacet
  facet normal  0.000000e+000  0.000000e+000 -1.000000e+000
    outer loop
      vertex  1.485355e+001  1.464466e-001  0.000000e+000
      vertex -4.000000e+000  0.000000e+000  0.000000e+000
      vertex -1.450000e+001  0.000000e+000  0.000000e+000
    endloop
  endfacet
  facet normal  0.000000e+000  0.000000e+000 -1.000000e+000
    outer loop
      vertex  1.485355e+001  1.464466e-001  0.000000e+000
      vertex -1.450000e+001  0.000000e+000  0.000000e+000
      vertex -1.485355e+001  1.464466e-001  0.000000e+000
    endloop
  endfacet
  facet normal  0.000000e+000  0.000000e+000 -1.000000e+000
    outer loop
      vertex  1.485355e+001  1.464466e-001  0.000000e+000
      vertex -1.485355e+001  1.464466e-001  0.000000e+000
      vertex -1.500000e+001  5.000000e-001  0.000000e+000
    endloop
  endfacet
  facet normal  0.000000e+000  0.000000e+000 -1.000000e+000
    outer loop
      vertex  1.485355e+001  1.464466e-001  0.000000e+000
      vertex -1.500000e+001  5.000000e-001  0.000000e+000
      vertex  1.500000e+001  5.000000e-001  0.000000e+000
    endloop
  endfacet
  facet normal  0.000000e+000  0.000000e+000 -1.000000e+000
    outer loop
      vertex -1.400000e+001  9.000000e+000  0.000000e+000
      vertex  1.400000e+001  9.000000e+000  0.000000e+000
      vertex -1.450000e+001  8.866025e+000  0.000000e+000
    endloop
  endfacet
  facet normal  0.000000e+000  0.000000e+000 -1.000000e+000
    outer loop
      vertex -1.450000e+001  8.866025e+000  0.000000e+000
      vertex  1.400000e+001  9.000000e+000  0.000000e+000
      vertex  1.450000e+001  8.866025e+000  0.000000e+000
    endloop
  endfacet
  facet normal  0.000000e+000  0.000000e+000 -1.000000e+000
    outer loop
      vertex -1.450000e+001  8.866025e+000  0.000000e+000
      vertex  1.450000e+001  8.866025e+000  0.000000e+000
      vertex -1.486602e+001  8.500000e+000  0.000000e+000
    endloop
  endfacet
  facet normal  0.000000e+000  0.000000e+000 -1.000000e+000
    outer loop
      vertex -1.486602e+001  8.500000e+000  0.000000e+000
      vertex  1.450000e+001  8.866025e+000  0.000000e+000
      vertex  1.486602e+001  8.500000e+000  0.000000e+000
    endloop
  endfacet
  facet normal  0.000000e+000  0.000000e+000 -1.000000e+000
    outer loop
      vertex -1.486602e+001  8.500000e+000  0.000000e+000
      vertex  1.486602e+001  8.500000e+000  0.000000e+000
      vertex -1.500000e+001  8.000000e+000  0.000000e+000
    endloop
  endfacet
  facet normal  0.000000e+000  0.000000e+000 -1.000000e+000
    outer loop
      vertex -1.500000e+001  8.000000e+000  0.000000e+000
      vertex  1.486602e+001  8.500000e+000  0.000000e+000
      vertex  1.500000e+001  8.000000e+000  0.000000e+000
    endloop
  endfacet
  facet normal  0.000000e+000  0.000000e+000 -1.000000e+000
    outer loop
      vertex -1.500000e+001  8.000000e+000  0.000000e+000
      vertex  1.500000e+001  8.000000e+000  0.000000e+000
      vertex -1.500000e+001  5.000000e-001  0.000000e+000
    endloop
  endfacet
  facet normal  0.000000e+000  0.000000e+000 -1.000000e+000
    outer loop
      vertex -1.500000e+001  5.000000e-001  0.000000e+000
      vertex  1.500000e+001  8.000000e+000  0.000000e+000
      vertex  1.500000e+001  5.000000e-001  0.000000e+000
    endloop
  endfacet
  facet normal  0.000000e+000  6.167906e-016 -1.000000e+000
    outer loop
      vertex  3.500000e+000 -1.800000e+000  0.000000e+000
      vertex -3.500000e+000 -1.800000e+000  0.000000e+000
      vertex  3.500000e+000  0.000000e+000  1.110223e-015
    endloop
  endfacet
  facet normal  0.000000e+000  6.167906e-016 -1.000000e+000
    outer loop
      vertex  3.500000e+000  0.000000e+000  1.110223e-015
      vertex -3.500000e+000 -1.800000e+000  0.000000e+000
      vertex -3.500000e+000  0.000000e+000  1.110223e-015
    endloop
  endfacet
  facet normal  0.000000e+000  0.000000e+000  1.000000e+000
    outer loop
      vertex  1.485355e+001  1.464466e-001  1.000000e+000
      vertex  1.500000e+001  5.000000e-001  1.000000e+000
      vertex -1.500000e+001  5.000000e-001  1.000000e+000
    endloop
  endfacet
  facet normal  0.000000e+000  0.000000e+000  1.000000e+000
    outer loop
      vertex  1.485355e+001  1.464466e-001  1.000000e+000
      vertex -1.500000e+001  5.000000e-001  1.000000e+000
      vertex -1.485355e+001  1.464466e-001  1.000000e+000
    endloop
  endfacet
  facet normal  0.000000e+000  0.000000e+000  1.000000e+000
    outer loop
      vertex  1.485355e+001  1.464466e-001  1.000000e+000
      vertex -1.485355e+001  1.464466e-001  1.000000e+000
      vertex -1.450000e+001  0.000000e+000  1.000000e+000
    endloop
  endfacet
  facet normal  0.000000e+000  0.000000e+000  1.000000e+000
    outer loop
      vertex  1.485355e+001  1.464466e-001  1.000000e+000
      vertex -1.450000e+001  0.000000e+000  1.000000e+000
      vertex -4.000000e+000  0.000000e+000  1.000000e+000
    endloop
  endfacet
  facet normal  0.000000e+000  0.000000e+000  1.000000e+000
    outer loop
      vertex  1.485355e+001  1.464466e-001  1.000000e+000
      vertex -4.000000e+000  0.000000e+000  1.000000e+000
      vertex  4.000000e+000  0.000000e+000  1.000000e+000
    endloop
  endfacet
  facet normal  0.000000e+000  0.000000e+000  1.000000e+000
    outer loop
      vertex  1.485355e+001  1.464466e-001  1.000000e+000
      vertex  4.000000e+000  0.000000e+000  1.000000e+000
      vertex  1.450000e+001  0.000000e+000  1.000000e+000
    endloop
  endfacet
  facet normal  0.000000e+000  0.000000e+000  1.000000e+000
    outer loop
      vertex -1.500000e+001  5.000000e-001  1.000000e+000
      vertex  1.500000e+001  5.000000e-001  1.000000e+000
      vertex -1.500000e+001  2.000000e+000  1.000000e+000
    endloop
  endfacet
  facet normal  0.000000e+000  0.000000e+000  1.000000e+000
    outer loop
      vertex -1.500000e+001  2.000000e+000  1.000000e+000
      vertex  1.500000e+001  5.000000e-001  1.000000e+000
      vertex  1.500000e+001  2.000000e+000  1.000000e+000
    endloop
  endfacet
  facet normal -1.000000e+000  0.000000e+000  0.000000e+000
    outer loop
      vertex -1.500000e+001  8.000000e+000  0.000000e+000
      vertex -1.500000e+001  5.000000e-001  0.000000e+000
      vertex -1.500000e+001  5.000000e-001  1.000000e+000
    endloop
  endfacet
  facet normal -1.000000e+000  0.000000e+000  0.000000e+000
    outer loop
      vertex -1.500000e+001  8.000000e+000  0.000000e+000
      vertex -1.500000e+001  5.000000e-001  1.000000e+000
      vertex -1.500000e+001  2.000000e+000  1.000000e+000
    endloop
  endfacet
  facet normal -1.000000e+000  0.000000e+000  0.000000e+000
    outer loop
      vertex -1.500000e+001  8.000000e+000  0.000000e+000
      vertex -1.500000e+001  2.000000e+000  1.000000e+000
      vertex -1.500000e+001  2.947580e+000  1.000000e+000
    endloop
  endfacet
  facet normal -1.000000e+000  0.000000e+000  0.000000e+000
    outer loop
      vertex -1.500000e+001  8.000000e+000  0.000000e+000
      vertex -1.500000e+001  2.947580e+000  1.000000e+000
      vertex -1.500000e+001  8.000000e+000  1.000000e+000
    endloop
  endfacet
  facet normal -1.000000e+000  0.000000e+000  0.000000e+000
    outer loop
      vertex -1.500000e+001  2.000000e+000  3.000000e+000
      vertex -1.500000e+001  2.947580e+000  3.000000e+000
      vertex -1.500000e+001  2.000000e+000  1.000000e+000
    endloop
  endfacet
  facet normal -1.000000e+000  0.000000e+000  0.000000e+000
    outer loop
      vertex -1.500000e+001  2.000000e+000  1.000000e+000
      vertex -1.500000e+001  2.947580e+000  3.000000e+000
      vertex -1.500000e+001  2.947580e+000  1.000000e+000
    endloop
  endfacet
  facet normal  0.000000e+000 -1.000000e+000  0.000000e+000
    outer loop
      vertex -3.500000e+000  0.000000e+000  1.110223e-015
      vertex -3.853553e+000  0.000000e+000  1.464466e-001
      vertex -4.000000e+000  0.000000e+000  0.000000e+000
    endloop
  endfacet
  facet normal  0.000000e+000 -1.000000e+000  0.000000e+000
    outer loop
      vertex -4.000000e+000  0.000000e+000  5.000000e-001
      vertex -4.000000e+000  0.000000e+000  1.000000e+000
      vertex -1.450000e+001  0.000000e+000  1.000000e+000
    endloop
  endfacet
  facet normal  0.000000e+000 -1.000000e+000  0.000000e+000
    outer loop
      vertex -4.000000e+000  0.000000e+000  5.000000e-001
      vertex -1.450000e+001  0.000000e+000  1.000000e+000
      vertex -1.450000e+001  0.000000e+000  0.000000e+000
    endloop
  endfacet
  facet normal  0.000000e+000 -1.000000e+000  0.000000e+000
    outer loop
      vertex -4.000000e+000  0.000000e+000  5.000000e-001
      vertex -1.450000e+001  0.000000e+000  0.000000e+000
      vertex -4.000000e+000  0.000000e+000  0.000000e+000
    endloop
  endfacet
  facet normal  0.000000e+000 -1.000000e+000  0.000000e+000
    outer loop
      vertex -4.000000e+000  0.000000e+000  5.000000e-001
      vertex -4.000000e+000  0.000000e+000  0.000000e+000
      vertex -3.853553e+000  0.000000e+000  1.464466e-001
    endloop
  endfacet
  facet normal -3.826831e-001 -9.238797e-001  0.000000e+000
    outer loop
      vertex -1.450000e+001  0.000000e+000  0.000000e+000
      vertex -1.450000e+001  0.000000e+000  1.000000e+000
      vertex -1.485355e+001  1.464466e-001  0.000000e+000
    endloop
  endfacet
  facet normal -3.826831e-001 -9.238797e-001  0.000000e+000
    outer loop
      vertex -1.485355e+001  1.464466e-001  0.000000e+000
      vertex -1.450000e+001  0.000000e+000  1.000000e+000
      vertex -1.485355e+001  1.464466e-001  1.000000e+000
    endloop
  endfacet
  facet normal -9.238799e-001 -3.826826e-001  0.000000e+000
    outer loop
      vertex -1.485355e+001  1.464466e-001  0.000000e+000
      vertex -1.485355e+001  1.464466e-001  1.000000e+000
      vertex -1.500000e+001  5.000000e-001  0.000000e+000
    endloop
  endfacet
  facet normal -9.238799e-001 -3.826826e-001  0.000000e+000
    outer loop
      vertex -1.500000e+001  5.000000e-001  0.000000e+000
      vertex -1.485355e+001  1.464466e-001  1.000000e+000
      vertex -1.500000e+001  5.000000e-001  1.000000e+000
    endloop
  endfacet
  facet normal  1.000000e+000  0.000000e+000  0.000000e+000
    outer loop
      vertex  1.500000e+001  2.000000e+000  1.000000e+000
      vertex  1.500000e+001  5.000000e-001  1.000000e+000
      vertex  1.500000e+001  5.000000e-001  0.000000e+000
    endloop
  endfacet
  facet normal  1.000000e+000  0.000000e+000  0.000000e+000
    outer loop
      vertex  1.500000e+001  2.000000e+000  1.000000e+000
      vertex  1.500000e+001  5.000000e-001  0.000000e+000
      vertex  1.500000e+001  2.947580e+000  1.000000e+000
    endloop
  endfacet
  facet normal  1.000000e+000  0.000000e+000  0.000000e+000
    outer loop
      vertex  1.500000e+001  2.000000e+000  1.000000e+000
      vertex  1.500000e+001  2.947580e+000  1.000000e+000
      vertex  1.500000e+001  2.947580e+000  3.000000e+000
    endloop
  endfacet
  facet normal  1.000000e+000  0.000000e+000  0.000000e+000
    outer loop
      vertex  1.500000e+001  2.000000e+000  1.000000e+000
      vertex  1.500000e+001  2.947580e+000  3.000000e+000
      vertex  1.500000e+001  2.000000e+000  3.000000e+000
    endloop
  endfacet
  facet normal  1.000000e+000  0.000000e+000  0.000000e+000
    outer loop
      vertex  1.500000e+001  8.000000e+000  0.000000e+000
      vertex  1.500000e+001  8.000000e+000  1.000000e+000
      vertex  1.500000e+001  5.000000e-001  0.000000e+000
    endloop
  endfacet
  facet normal  1.000000e+000  0.000000e+000  0.000000e+000
    outer loop
      vertex  1.500000e+001  5.000000e-001  0.000000e+000
      vertex  1.500000e+001  8.000000e+000  1.000000e+000
      vertex  1.500000e+001  2.947580e+000  1.000000e+000
    endloop
  endfacet
  facet normal  0.000000e+000 -1.000000e+000  0.000000e+000
    outer loop
      vertex  4.000000e+000  0.000000e+000  1.000000e+000
      vertex  4.000000e+000  0.000000e+000  5.000000e-001
      vertex  1.450000e+001  0.000000e+000  1.000000e+000
    endloop
  endfacet
  facet normal  0.000000e+000 -1.000000e+000  0.000000e+000
    outer loop
      vertex  4.000000e+000  0.000000e+000  0.000000e+000
      vertex  1.450000e+001  0.000000e+000  0.000000e+000
      vertex  1.450000e+001  0.000000e+000  1.000000e+000
    endloop
  endfacet
  facet normal  0.000000e+000 -1.000000e+000  0.000000e+000
    outer loop
      vertex  4.000000e+000  0.000000e+000  0.000000e+000
      vertex  1.450000e+001  0.000000e+000  1.000000e+000
      vertex  4.000000e+000  0.000000e+000  5.000000e-001
    endloop
  endfacet
  facet normal  0.000000e+000 -1.000000e+000  0.000000e+000
    outer loop
      vertex  4.000000e+000  0.000000e+000  0.000000e+000
      vertex  4.000000e+000  0.000000e+000  5.000000e-001
      vertex  3.853553e+000  0.000000e+000  1.464466e-001
    endloop
  endfacet
  facet normal  0.000000e+000 -1.000000e+000  0.000000e+000
    outer loop
      vertex  4.000000e+000  0.000000e+000  0.000000e+000
      vertex  3.853553e+000  0.000000e+000  1.464466e-001
      vertex  3.500000e+000  0.000000e+000  1.110223e-015
    endloop
  endfacet
  facet normal  9.238799e-001 -3.826826e-001  0.000000e+000
    outer loop
      vertex  1.500000e+001  5.000000e-001  0.000000e+000
      vertex  1.500000e+001  5.000000e-001  1.000000e+000
      vertex  1.485355e+001  1.464466e-001  0.000000e+000
    endloop
  endfacet
  facet normal  9.238799e-001 -3.826826e-001  0.000000e+000
    outer loop
      vertex  1.485355e+001  1.464466e-001  0.000000e+000
      vertex  1.500000e+001  5.000000e-001  1.000000e+000
      vertex  1.485355e+001  1.464466e-001  1.000000e+000
    endloop
  endfacet
  facet normal  3.826831e-001 -9.238797e-001  0.000000e+000
    outer loop
      vertex  1.485355e+001  1.464466e-001  0.000000e+000
      vertex  1.485355e+001  1.464466e-001  1.000000e+000
      vertex  1.450000e+001  0.000000e+000  0.000000e+000
    endloop
  endfacet
  facet normal  3.826831e-001 -9.238797e-001  0.000000e+000
    outer loop
      vertex  1.450000e+001  0.000000e+000  0.000000e+000
      vertex  1.485355e+001  1.464466e-001  1.000000e+000
      vertex  1.450000e+001  0.000000e+000  1.000000e+000
    endloop
  endfacet
  facet normal  0.000000e+000  1.000000e+000  0.000000e+000
    outer loop
      vertex  1.400000e+001  9.000000e+000  0.000000e+000
      vertex -1.400000e+001  9.000000e+000  0.000000e+000
      vertex -1.400000e+001  9.000000e+000  1.000000e+000
    endloop
  endfacet
  facet normal  0.000000e+000  1.000000e+000  0.000000e+000
    outer loop
      vertex  1.400000e+001  9.000000e+000  0.000000e+000
      vertex -1.400000e+001  9.000000e+000  1.000000e+000
      vertex  1.300000e+000  9.000000e+000  1.000000e+000
    endloop
  endfacet
  facet normal  0.000000e+000  1.000000e+000  0.000000e+000
    outer loop
      vertex  1.400000e+001  9.000000e+000  0.000000e+000
      vertex  1.300000e+000  9.000000e+000  1.000000e+000
      vertex  5.300000e+000  9.000000e+000  1.000000e+000
    endloop
  endfacet
  facet normal  0.000000e+000  1.000000e+000  0.000000e+000
    outer loop
      vertex  1.400000e+001  9.000000e+000  0.000000e+000
      vertex  5.300000e+000  9.000000e+000  1.000000e+000
      vertex  1.400000e+001  9.000000e+000  1.000000e+000
    endloop
  endfacet
  facet normal  0.000000e+000  1.000000e+000  0.000000e+000
    outer loop
      vertex  1.300000e+000  9.000000e+000  1.000000e+000
      vertex  1.300000e+000  9.000000e+000  1.496274e+000
      vertex  1.406908e+000  9.000000e+000  1.946148e+000
    endloop
  endfacet
  facet normal  0.000000e+000  1.000000e+000  0.000000e+000
    outer loop
      vertex  1.300000e+000  9.000000e+000  1.000000e+000
      vertex  1.406908e+000  9.000000e+000  1.946148e+000
      vertex  1.704772e+000  9.000000e+000  2.299831e+000
    endloop
  endfacet
  facet normal  0.000000e+000  1.000000e+000  0.000000e+000
    outer loop
      vertex  1.300000e+000  9.000000e+000  1.000000e+000
      vertex  1.704772e+000  9.000000e+000  2.299831e+000
      vertex  3.704772e+000  9.000000e+000  3.781313e+000
    endloop
  endfacet
  facet normal  0.000000e+000  1.000000e+000  0.000000e+000
    outer loop
      vertex  1.300000e+000  9.000000e+000  1.000000e+000
      vertex  3.704772e+000  9.000000e+000  3.781313e+000
      vertex  3.735197e+000  9.000000e+000  3.802981e+000
    endloop
  endfacet
  facet normal  0.000000e+000  1.000000e+000  0.000000e+000
    outer loop
      vertex  1.300000e+000  9.000000e+000  1.000000e+000
      vertex  3.735197e+000  9.000000e+000  3.802981e+000
      vertex  4.242584e+000  9.000000e+000  3.976106e+000
    endloop
  endfacet
  facet normal  0.000000e+000  1.000000e+000  0.000000e+000
    outer loop
      vertex  1.300000e+000  9.000000e+000  1.000000e+000
      vertex  4.242584e+000  9.000000e+000  3.976106e+000
      vertex  4.766474e+000  9.000000e+000  3.862291e+000
    endloop
  endfacet
  facet normal  0.000000e+000  1.000000e+000  0.000000e+000
    outer loop
      vertex  1.300000e+000  9.000000e+000  1.000000e+000
      vertex  4.766474e+000  9.000000e+000  3.862291e+000
      vertex  5.156292e+000  9.000000e+000  3.494247e+000
    endloop
  endfacet
  facet normal  0.000000e+000  1.000000e+000  0.000000e+000
    outer loop
      vertex  1.300000e+000  9.000000e+000  1.000000e+000
      vertex  5.156292e+000  9.000000e+000  3.494247e+000
      vertex  5.300000e+000  9.000000e+000  2.977756e+000
    endloop
  endfacet
  facet normal  0.000000e+000  1.000000e+000  0.000000e+000
    outer loop
      vertex  1.300000e+000  9.000000e+000  1.000000e+000
      vertex  5.300000e+000  9.000000e+000  2.977756e+000
      vertex  5.300000e+000  9.000000e+000  1.000000e+000
    endloop
  endfacet
  facet normal  0.000000e+000  0.000000e+000  1.000000e+000
    outer loop
      vertex -1.500000e+001  8.000000e+000  1.000000e+000
      vertex -1.450000e+001  8.866025e+000  1.000000e+000
      vertex -1.486602e+001  8.500000e+000  1.000000e+000
    endloop
  endfacet
  facet normal  0.000000e+000  0.000000e+000  1.000000e+000
    outer loop
      vertex -1.400000e+001  9.000000e+000  1.000000e+000
      vertex -1.450000e+001  8.866025e+000  1.000000e+000
      vertex  1.300000e+000  9.000000e+000  1.000000e+000
    endloop
  endfacet
  facet normal  0.000000e+000  0.000000e+000  1.000000e+000
    outer loop
      vertex  1.300000e+000  9.000000e+000  1.000000e+000
      vertex -1.450000e+001  8.866025e+000  1.000000e+000
      vertex -1.500000e+001  8.000000e+000  1.000000e+000
    endloop
  endfacet
  facet normal  0.000000e+000  0.000000e+000  1.000000e+000
    outer loop
      vertex  1.300000e+000  9.000000e+000  1.000000e+000
      vertex -1.500000e+001  8.000000e+000  1.000000e+000
      vertex  1.300000e+000  2.947580e+000  1.000000e+000
    endloop
  endfacet
  facet normal  0.000000e+000  0.000000e+000  1.000000e+000
    outer loop
      vertex  1.300000e+000  2.947580e+000  1.000000e+000
      vertex -1.500000e+001  8.000000e+000  1.000000e+000
      vertex -1.500000e+001  2.947580e+000  1.000000e+000
    endloop
  endfacet
  facet normal -9.659256e-001  2.588198e-001  0.000000e+000
    outer loop
      vertex -1.500000e+001  8.000000e+000  0.000000e+000
      vertex -1.500000e+001  8.000000e+000  1.000000e+000
      vertex -1.486602e+001  8.500000e+000  0.000000e+000
    endloop
  endfacet
  facet normal -9.659256e-001  2.588198e-001  0.000000e+000
    outer loop
      vertex -1.486602e+001  8.500000e+000  0.000000e+000
      vertex -1.500000e+001  8.000000e+000  1.000000e+000
      vertex -1.486602e+001  8.500000e+000  1.000000e+000
    endloop
  endfacet
  facet normal -7.071068e-001  7.071068e-001  0.000000e+000
    outer loop
      vertex -1.486602e+001  8.500000e+000  0.000000e+000
      vertex -1.486602e+001  8.500000e+000  1.000000e+000
      vertex -1.450000e+001  8.866025e+000  0.000000e+000
    endloop
  endfacet
  facet normal -7.071068e-001  7.071068e-001  0.000000e+000
    outer loop
      vertex -1.450000e+001  8.866025e+000  0.000000e+000
      vertex -1.486602e+001  8.500000e+000  1.000000e+000
      vertex -1.450000e+001  8.866025e+000  1.000000e+000
    endloop
  endfacet
  facet normal -2.588198e-001  9.659256e-001  0.000000e+000
    outer loop
      vertex -1.450000e+001  8.866025e+000  0.000000e+000
      vertex -1.450000e+001  8.866025e+000  1.000000e+000
      vertex -1.400000e+001  9.000000e+000  0.000000e+000
    endloop
  endfacet
  facet normal -2.588198e-001  9.659256e-001  0.000000e+000
    outer loop
      vertex -1.400000e+001  9.000000e+000  0.000000e+000
      vertex -1.450000e+001  8.866025e+000  1.000000e+000
      vertex -1.400000e+001  9.000000e+000  1.000000e+000
    endloop
  endfacet
  facet normal  0.000000e+000  0.000000e+000  1.000000e+000
    outer loop
      vertex  1.500000e+001  8.000000e+000  1.000000e+000
      vertex  1.486602e+001  8.500000e+000  1.000000e+000
      vertex  1.450000e+001  8.866025e+000  1.000000e+000
    endloop
  endfacet
  facet normal  0.000000e+000  0.000000e+000  1.000000e+000
    outer loop
      vertex  5.300000e+000  2.947580e+000  1.000000e+000
      vertex  1.500000e+001  2.947580e+000  1.000000e+000
      vertex  5.300000e+000  9.000000e+000  1.000000e+000
    endloop
  endfacet
  facet normal  0.000000e+000  0.000000e+000  1.000000e+000
    outer loop
      vertex  5.300000e+000  9.000000e+000  1.000000e+000
      vertex  1.500000e+001  2.947580e+000  1.000000e+000
      vertex  1.500000e+001  8.000000e+000  1.000000e+000
    endloop
  endfacet
  facet normal  0.000000e+000  0.000000e+000  1.000000e+000
    outer loop
      vertex  5.300000e+000  9.000000e+000  1.000000e+000
      vertex  1.500000e+001  8.000000e+000  1.000000e+000
      vertex  1.400000e+001  9.000000e+000  1.000000e+000
    endloop
  endfacet
  facet normal  0.000000e+000  0.000000e+000  1.000000e+000
    outer loop
      vertex  1.400000e+001  9.000000e+000  1.000000e+000
      vertex  1.500000e+001  8.000000e+000  1.000000e+000
      vertex  1.450000e+001  8.866025e+000  1.000000e+000
    endloop
  endfacet
  facet normal  2.588198e-001  9.659256e-001  0.000000e+000
    outer loop
      vertex  1.400000e+001  9.000000e+000  0.000000e+000
      vertex  1.400000e+001  9.000000e+000  1.000000e+000
      vertex  1.450000e+001  8.866025e+000  0.000000e+000
    endloop
  endfacet
  facet normal  2.588198e-001  9.659256e-001  0.000000e+000
    outer loop
      vertex  1.450000e+001  8.866025e+000  0.000000e+000
      vertex  1.400000e+001  9.000000e+000  1.000000e+000
      vertex  1.450000e+001  8.866025e+000  1.000000e+000
    endloop
  endfacet
  facet normal  7.071068e-001  7.071068e-001  0.000000e+000
    outer loop
      vertex  1.450000e+001  8.866025e+000  0.000000e+000
      vertex  1.450000e+001  8.866025e+000  1.000000e+000
      vertex  1.486602e+001  8.500000e+000  0.000000e+000
    endloop
  endfacet
  facet normal  7.071068e-001  7.071068e-001  0.000000e+000
    outer loop
      vertex  1.486602e+001  8.500000e+000  0.000000e+000
      vertex  1.450000e+001  8.866025e+000  1.000000e+000
      vertex  1.486602e+001  8.500000e+000  1.000000e+000
    endloop
  endfacet
  facet normal  9.659256e-001  2.588198e-001  0.000000e+000
    outer loop
      vertex  1.486602e+001  8.500000e+000  0.000000e+000
      vertex  1.486602e+001  8.500000e+000  1.000000e+000
      vertex  1.500000e+001  8.000000e+000  0.000000e+000
    endloop
  endfacet
  facet normal  9.659256e-001  2.588198e-001  0.000000e+000
    outer loop
      vertex  1.500000e+001  8.000000e+000  0.000000e+000
      vertex  1.486602e+001  8.500000e+000  1.000000e+000
      vertex  1.500000e+001  8.000000e+000  1.000000e+000
    endloop
  endfacet
  facet normal -5.952276e-001  0.000000e+000  8.035572e-001
    outer loop
      vertex  3.704772e+000  2.947580e+000  3.781313e+000
      vertex  3.704772e+000  9.000000e+000  3.781313e+000
      vertex  2.650000e+000  2.947580e+000  3.000000e+000
    endloop
  endfacet
  facet normal -5.952275e-001 -4.432620e-009  8.035572e-001
    outer loop
      vertex  2.650000e+000  2.947580e+000  3.000000e+000
      vertex  3.704772e+000  9.000000e+000  3.781313e+000
      vertex  1.704772e+000  9.000000e+000  2.299831e+000
    endloop
  endfacet
  facet normal -5.952275e-001  0.000000e+000  8.035572e-001
    outer loop
      vertex  2.650000e+000  2.947580e+000  3.000000e+000
      vertex  1.704772e+000  9.000000e+000  2.299831e+000
      vertex  1.704772e+000  2.947580e+000  2.299831e+000
    endloop
  endfacet
  facet normal  0.000000e+000 -1.000000e+000  0.000000e+000
    outer loop
      vertex  2.650000e+000  2.947580e+000  3.000000e+000
      vertex  5.299753e+000  2.947580e+000  3.000000e+000
      vertex  5.147556e+000  2.947580e+000  3.508461e+000
    endloop
  endfacet
  facet normal  0.000000e+000 -1.000000e+000  0.000000e+000
    outer loop
      vertex  2.650000e+000  2.947580e+000  3.000000e+000
      vertex  5.147556e+000  2.947580e+000  3.508461e+000
      vertex  4.756607e+000  2.947580e+000  3.867424e+000
    endloop
  endfacet
  facet normal  0.000000e+000 -1.000000e+000  0.000000e+000
    outer loop
      vertex  2.650000e+000  2.947580e+000  3.000000e+000
      vertex  4.756607e+000  2.947580e+000  3.867424e+000
      vertex  4.237033e+000  2.947580e+000  3.975771e+000
    endloop
  endfacet
  facet normal  0.000000e+000 -1.000000e+000  0.000000e+000
    outer loop
      vertex  2.650000e+000  2.947580e+000  3.000000e+000
      vertex  4.237033e+000  2.947580e+000  3.975771e+000
      vertex  3.735197e+000  2.947580e+000  3.802981e+000
    endloop
  endfacet
  facet normal  0.000000e+000 -1.000000e+000  0.000000e+000
    outer loop
      vertex  2.650000e+000  2.947580e+000  3.000000e+000
      vertex  3.735197e+000  2.947580e+000  3.802981e+000
      vertex  3.704772e+000  2.947580e+000  3.781313e+000
    endloop
  endfacet
  facet normal  1.000000e+000  0.000000e+000  0.000000e+000
    outer loop
      vertex  5.300000e+000  9.000000e+000  1.000000e+000
      vertex  5.300000e+000  9.000000e+000  2.977756e+000
      vertex  5.300000e+000  2.947580e+000  1.000000e+000
    endloop
  endfacet
  facet normal  1.000000e+000  0.000000e+000  0.000000e+000
    outer loop
      vertex  5.300000e+000  2.947580e+000  1.000000e+000
      vertex  5.300000e+000  9.000000e+000  2.977756e+000
      vertex  5.300000e+000  2.947580e+000  2.977756e+000
    endloop
  endfacet
  facet normal  0.000000e+000  1.000000e+000  0.000000e+000
    outer loop
      vertex  5.299753e+000  2.947580e+000  3.000000e+000
      vertex  1.500000e+001  2.947580e+000  3.000000e+000
      vertex  5.300000e+000  2.947580e+000  2.977756e+000
    endloop
  endfacet
  facet normal  0.000000e+000  1.000000e+000  0.000000e+000
    outer loop
      vertex  5.300000e+000  2.947580e+000  2.977756e+000
      vertex  1.500000e+001  2.947580e+000  3.000000e+000
      vertex  1.500000e+001  2.947580e+000  1.000000e+000
    endloop
  endfacet
  facet normal  0.000000e+000  1.000000e+000  0.000000e+000
    outer loop
      vertex  5.300000e+000  2.947580e+000  2.977756e+000
      vertex  1.500000e+001  2.947580e+000  1.000000e+000
      vertex  5.300000e+000  2.947580e+000  1.000000e+000
    endloop
  endfacet
  facet normal  0.000000e+000  0.000000e+000  1.000000e+000
    outer loop
      vertex -1.500000e+001  2.000000e+000  3.000000e+000
      vertex  1.500000e+001  2.000000e+000  3.000000e+000
      vertex  1.500000e+001  2.947580e+000  3.000000e+000
    endloop
  endfacet
  facet normal  0.000000e+000  0.000000e+000  1.000000e+000
    outer loop
      vertex -1.500000e+001  2.000000e+000  3.000000e+000
      vertex  1.500000e+001  2.947580e+000  3.000000e+000
      vertex  5.299753e+000  2.947580e+000  3.000000e+000
    endloop
  endfacet
  facet normal  0.000000e+000  0.000000e+000  1.000000e+000
    outer loop
      vertex -1.500000e+001  2.000000e+000  3.000000e+000
      vertex  5.299753e+000  2.947580e+000  3.000000e+000
      vertex  2.650000e+000  2.947580e+000  3.000000e+000
    endloop
  endfacet
  facet normal  0.000000e+000  0.000000e+000  1.000000e+000
    outer loop
      vertex -1.500000e+001  2.000000e+000  3.000000e+000
      vertex  2.650000e+000  2.947580e+000  3.000000e+000
      vertex -1.500000e+001  2.947580e+000  3.000000e+000
    endloop
  endfacet
  facet normal -5.801151e-001  0.000000e+000  8.145345e-001
    outer loop
      vertex  3.704772e+000  9.000000e+000  3.781313e+000
      vertex  3.704772e+000  2.947580e+000  3.781313e+000
      vertex  3.735197e+000  9.000000e+000  3.802981e+000
    endloop
  endfacet
  facet normal -5.801151e-001  0.000000e+000  8.145345e-001
    outer loop
      vertex  3.735197e+000  9.000000e+000  3.802981e+000
      vertex  3.704772e+000  2.947580e+000  3.781313e+000
      vertex  3.735197e+000  2.947580e+000  3.802981e+000
    endloop
  endfacet
  facet normal -3.229279e-001  0.000000e+000  9.464236e-001
    outer loop
      vertex  3.735197e+000  9.000000e+000  3.802981e+000
      vertex  3.735197e+000  2.947580e+000  3.802981e+000
      vertex  4.242584e+000  9.000000e+000  3.976106e+000
    endloop
  endfacet
  facet normal -3.255584e-001  2.463115e-004  9.455219e-001
    outer loop
      vertex  4.242584e+000  9.000000e+000  3.976106e+000
      vertex  3.735197e+000  2.947580e+000  3.802981e+000
      vertex  4.237033e+000  2.947580e+000  3.975771e+000
    endloop
  endfacet
  facet normal  2.122986e-001 -2.487683e-004  9.772048e-001
    outer loop
      vertex  4.242584e+000  9.000000e+000  3.976106e+000
      vertex  4.237033e+000  2.947580e+000  3.975771e+000
      vertex  4.766474e+000  9.000000e+000  3.862291e+000
    endloop
  endfacet
  facet normal  2.041394e-001  4.975267e-004  9.789417e-001
    outer loop
      vertex  4.766474e+000  9.000000e+000  3.862291e+000
      vertex  4.237033e+000  2.947580e+000  3.975771e+000
      vertex  4.756607e+000  2.947580e+000  3.867424e+000
    endloop
  endfacet
  facet normal  6.865074e-001 -5.024638e-004  7.271227e-001
    outer loop
      vertex  4.766474e+000  9.000000e+000  3.862291e+000
      vertex  4.756607e+000  2.947580e+000  3.867424e+000
      vertex  5.156292e+000  9.000000e+000  3.494247e+000
    endloop
  endfacet
  facet normal  6.763314e-001  7.536941e-004  7.365971e-001
    outer loop
      vertex  5.156292e+000  9.000000e+000  3.494247e+000
      vertex  4.756607e+000  2.947580e+000  3.867424e+000
      vertex  5.147556e+000  2.947580e+000  3.508461e+000
    endloop
  endfacet
  facet normal  9.634030e-001 -7.610503e-004  2.680560e-001
    outer loop
      vertex  5.156292e+000  9.000000e+000  3.494247e+000
      vertex  5.147556e+000  2.947580e+000  3.508461e+000
      vertex  5.300000e+000  9.000000e+000  2.977756e+000
    endloop
  endfacet
  facet normal  9.580029e-001  1.014733e-003  2.867567e-001
    outer loop
      vertex  5.300000e+000  9.000000e+000  2.977756e+000
      vertex  5.147556e+000  2.947580e+000  3.508461e+000
      vertex  5.299753e+000  2.947580e+000  3.000000e+000
    endloop
  endfacet
  facet normal  9.999381e-001  0.000000e+000  1.112483e-002
    outer loop
      vertex  5.300000e+000  9.000000e+000  2.977756e+000
      vertex  5.299753e+000  2.947580e+000  3.000000e+000
      vertex  5.300000e+000  2.947580e+000  2.977756e+000
    endloop
  endfacet
  facet normal -1.000000e+000  0.000000e+000  0.000000e+000
    outer loop
      vertex  1.300000e+000  9.000000e+000  1.496274e+000
      vertex  1.300000e+000  9.000000e+000  1.000000e+000
      vertex  1.300000e+000  2.947580e+000  1.496274e+000
    endloop
  endfacet
  facet normal -1.000000e+000  0.000000e+000  0.000000e+000
    outer loop
      vertex  1.300000e+000  2.947580e+000  1.496274e+000
      vertex  1.300000e+000  9.000000e+000  1.000000e+000
      vertex  1.300000e+000  2.947580e+000  1.000000e+000
    endloop
  endfacet
  facet normal  0.000000e+000  1.000000e+000  0.000000e+000
    outer loop
      vertex -1.500000e+001  2.947580e+000  3.000000e+000
      vertex  2.650000e+000  2.947580e+000  3.000000e+000
      vertex  1.704772e+000  2.947580e+000  2.299831e+000
    endloop
  endfacet
  facet normal  0.000000e+000  1.000000e+000  0.000000e+000
    outer loop
      vertex -1.500000e+001  2.947580e+000  3.000000e+000
      vertex  1.704772e+000  2.947580e+000  2.299831e+000
      vertex  1.406908e+000  2.947580e+000  1.946148e+000
    endloop
  endfacet
  facet normal  0.000000e+000  1.000000e+000  0.000000e+000
    outer loop
      vertex -1.500000e+001  2.947580e+000  3.000000e+000
      vertex  1.406908e+000  2.947580e+000  1.946148e+000
      vertex  1.300000e+000  2.947580e+000  1.496274e+000
    endloop
  endfacet
  facet normal  0.000000e+000  1.000000e+000  0.000000e+000
    outer loop
      vertex -1.500000e+001  2.947580e+000  3.000000e+000
      vertex  1.300000e+000  2.947580e+000  1.496274e+000
      vertex  1.300000e+000  2.947580e+000  1.000000e+000
    endloop
  endfacet
  facet normal  0.000000e+000  1.000000e+000  0.000000e+000
    outer loop
      vertex -1.500000e+001  2.947580e+000  3.000000e+000
      vertex  1.300000e+000  2.947580e+000  1.000000e+000
      vertex -1.500000e+001  2.947580e+000  1.000000e+000
    endloop
  endfacet
  facet normal -9.729060e-001  0.000000e+000  2.312011e-001
    outer loop
      vertex  1.300000e+000  9.000000e+000  1.496274e+000
      vertex  1.300000e+000  2.947580e+000  1.496274e+000
      vertex  1.406908e+000  9.000000e+000  1.946148e+000
    endloop
  endfacet
  facet normal -9.729060e-001  0.000000e+000  2.312011e-001
    outer loop
      vertex  1.406908e+000  9.000000e+000  1.946148e+000
      vertex  1.300000e+000  2.947580e+000  1.496274e+000
      vertex  1.406908e+000  2.947580e+000  1.946148e+000
    endloop
  endfacet
  facet normal -7.648836e-001  0.000000e+000  6.441685e-001
    outer loop
      vertex  1.406908e+000  9.000000e+000  1.946148e+000
      vertex  1.406908e+000  2.947580e+000  1.946148e+000
      vertex  1.704772e+000  9.000000e+000  2.299831e+000
    endloop
  endfacet
  facet normal -7.648836e-001  0.000000e+000  6.441685e-001
    outer loop
      vertex  1.704772e+000  9.000000e+000  2.299831e+000
      vertex  1.406908e+000  2.947580e+000  1.946148e+000
      vertex  1.704772e+000  2.947580e+000  2.299831e+000
    endloop
  endfacet
  facet normal -9.238794e-001  0.000000e+000 -3.826837e-001
    outer loop
      vertex -4.000000e+000 -1.800000e+000  5.000000e-001
      vertex -4.000000e+000  0.000000e+000  5.000000e-001
      vertex -3.853553e+000 -1.800000e+000  1.464466e-001
    endloop
  endfacet
  facet normal -9.238794e-001  0.000000e+000 -3.826837e-001
    outer loop
      vertex -3.853553e+000 -1.800000e+000  1.464466e-001
      vertex -4.000000e+000  0.000000e+000  5.000000e-001
      vertex -3.853553e+000  0.000000e+000  1.464466e-001
    endloop
  endfacet
  facet normal -3.826835e-001  0.000000e+000 -9.238795e-001
    outer loop
      vertex -3.853553e+000 -1.800000e+000  1.464466e-001
      vertex -3.853553e+000  0.000000e+000  1.464466e-001
      vertex -3.500000e+000 -1.800000e+000  0.000000e+000
    endloop
  endfacet
  facet normal -3.826835e-001  5.698401e-016 -9.238795e-001
    outer loop
      vertex -3.500000e+000 -1.800000e+000  0.000000e+000
      vertex -3.853553e+000  0.000000e+000  1.464466e-001
      vertex -3.500000e+000  0.000000e+000  1.110223e-015
    endloop
  endfacet
  facet normal  0.000000e+000 -1.000000e+000  0.000000e+000
    outer loop
      vertex -3.800000e+000 -2.000000e+000  5.500000e+000
      vertex -3.800000e+000 -2.000000e+000  5.000000e-001
      vertex -3.712132e+000 -2.000000e+000  5.712132e+000
    endloop
  endfacet
  facet normal  0.000000e+000 -1.000000e+000  0.000000e+000
    outer loop
      vertex -3.712132e+000 -2.000000e+000  5.712132e+000
      vertex -3.800000e+000 -2.000000e+000  5.000000e-001
      vertex -3.712132e+000 -2.000000e+000  2.878681e-001
    endloop
  endfacet
  facet normal  0.000000e+000 -1.000000e+000  0.000000e+000
    outer loop
      vertex -3.712132e+000 -2.000000e+000  5.712132e+000
      vertex -3.712132e+000 -2.000000e+000  2.878681e-001
      vertex -3.500000e+000 -2.000000e+000  5.800000e+000
    endloop
  endfacet
  facet normal  0.000000e+000 -1.000000e+000  0.000000e+000
    outer loop
      vertex -3.500000e+000 -2.000000e+000  5.800000e+000
      vertex -3.712132e+000 -2.000000e+000  2.878681e-001
      vertex -3.500000e+000 -2.000000e+000  2.000000e-001
    endloop
  endfacet
  facet normal  0.000000e+000 -1.000000e+000  0.000000e+000
    outer loop
      vertex -3.500000e+000 -2.000000e+000  5.800000e+000
      vertex -3.500000e+000 -2.000000e+000  2.000000e-001
      vertex  3.500000e+000 -2.000000e+000  5.800000e+000
    endloop
  endfacet
  facet normal  0.000000e+000 -1.000000e+000  0.000000e+000
    outer loop
      vertex  3.500000e+000 -2.000000e+000  5.800000e+000
      vertex -3.500000e+000 -2.000000e+000  2.000000e-001
      vertex  3.500000e+000 -2.000000e+000  2.000000e-001
    endloop
  endfacet
  facet normal  0.000000e+000 -1.000000e+000  0.000000e+000
    outer loop
      vertex  3.500000e+000 -2.000000e+000  5.800000e+000
      vertex  3.500000e+000 -2.000000e+000  2.000000e-001
      vertex  3.712132e+000 -2.000000e+000  5.712132e+000
    endloop
  endfacet
  facet normal  0.000000e+000 -1.000000e+000  0.000000e+000
    outer loop
      vertex  3.712132e+000 -2.000000e+000  5.712132e+000
      vertex  3.500000e+000 -2.000000e+000  2.000000e-001
      vertex  3.712132e+000 -2.000000e+000  2.878678e-001
    endloop
  endfacet
  facet normal  0.000000e+000 -1.000000e+000  0.000000e+000
    outer loop
      vertex  3.712132e+000 -2.000000e+000  5.712132e+000
      vertex  3.712132e+000 -2.000000e+000  2.878678e-001
      vertex  3.800000e+000 -2.000000e+000  5.500000e+000
    endloop
  endfacet
  facet normal  0.000000e+000 -1.000000e+000  0.000000e+000
    outer loop
      vertex  3.800000e+000 -2.000000e+000  5.500000e+000
      vertex  3.712132e+000 -2.000000e+000  2.878678e-001
      vertex  3.800000e+000 -2.000000e+000  4.999996e-001
    endloop
  endfacet
  facet normal -1.000000e+000  0.000000e+000  0.000000e+000
    outer loop
      vertex -4.000000e+000 -1.800000e+000  5.500000e+000
      vertex -4.000000e+000  0.000000e+000  5.500000e+000
      vertex -4.000000e+000 -1.800000e+000  5.000000e-001
    endloop
  endfacet
  facet normal -1.000000e+000  0.000000e+000  0.000000e+000
    outer loop
      vertex -4.000000e+000 -1.800000e+000  5.000000e-001
      vertex -4.000000e+000  0.000000e+000  5.500000e+000
      vertex -4.000000e+000  0.000000e+000  1.000000e+000
    endloop
  endfacet
  facet normal -1.000000e+000  0.000000e+000  0.000000e+000
    outer loop
      vertex -4.000000e+000 -1.800000e+000  5.000000e-001
      vertex -4.000000e+000  0.000000e+000  1.000000e+000
      vertex -4.000000e+000  0.000000e+000  5.000000e-001
    endloop
  endfacet
  facet normal -3.826838e-001  0.000000e+000  9.238794e-001
    outer loop
      vertex -3.500000e+000 -1.800000e+000  6.000000e+000
      vertex -3.500000e+000  0.000000e+000  6.000000e+000
      vertex -3.853553e+000 -1.800000e+000  5.853553e+000
    endloop
  endfacet
  facet normal -3.826838e-001  0.000000e+000  9.238794e-001
    outer loop
      vertex -3.853553e+000 -1.800000e+000  5.853553e+000
      vertex -3.500000e+000  0.000000e+000  6.000000e+000
      vertex -3.853553e+000  0.000000e+000  5.853553e+000
    endloop
  endfacet
  facet normal -9.238794e-001  0.000000e+000  3.826838e-001
    outer loop
      vertex -3.853553e+000 -1.800000e+000  5.853553e+000
      vertex -3.853553e+000  0.000000e+000  5.853553e+000
      vertex -4.000000e+000 -1.800000e+000  5.500000e+000
    endloop
  endfacet
  facet normal -9.238794e-001  0.000000e+000  3.826838e-001
    outer loop
      vertex -4.000000e+000 -1.800000e+000  5.500000e+000
      vertex -3.853553e+000  0.000000e+000  5.853553e+000
      vertex -4.000000e+000  0.000000e+000  5.500000e+000
    endloop
  endfacet
  facet normal  0.000000e+000  0.000000e+000  1.000000e+000
    outer loop
      vertex -3.500000e+000 -1.800000e+000  6.000000e+000
      vertex  3.500000e+000 -1.800000e+000  6.000000e+000
      vertex -3.500000e+000  0.000000e+000  6.000000e+000
    endloop
  endfacet
  facet normal  0.000000e+000  0.000000e+000  1.000000e+000
    outer loop
      vertex -3.500000e+000  0.000000e+000  6.000000e+000
      vertex  3.500000e+000 -1.800000e+000  6.000000e+000
      vertex  3.500000e+000  0.000000e+000  6.000000e+000
    endloop
  endfacet
  facet normal  9.238794e-001  0.000000e+000 -3.826837e-001
    outer loop
      vertex  4.000000e+000  0.000000e+000  5.000000e-001
      vertex  4.000000e+000 -1.800000e+000  5.000000e-001
      vertex  3.853553e+000  0.000000e+000  1.464466e-001
    endloop
  endfacet
  facet normal  9.238794e-001  0.000000e+000 -3.826837e-001
    outer loop
      vertex  3.853553e+000  0.000000e+000  1.464466e-001
      vertex  4.000000e+000 -1.800000e+000  5.000000e-001
      vertex  3.853553e+000 -1.800000e+000  1.464466e-001
    endloop
  endfacet
  facet normal  3.826835e-001  0.000000e+000 -9.238795e-001
    outer loop
      vertex  3.853553e+000  0.000000e+000  1.464466e-001
      vertex  3.853553e+000 -1.800000e+000  1.464466e-001
      vertex  3.500000e+000  0.000000e+000  1.110223e-015
    endloop
  endfacet
  facet normal  3.826835e-001  5.698401e-016 -9.238795e-001
    outer loop
      vertex  3.500000e+000  0.000000e+000  1.110223e-015
      vertex  3.853553e+000 -1.800000e+000  1.464466e-001
      vertex  3.500000e+000 -1.800000e+000  0.000000e+000
    endloop
  endfacet
  facet normal  1.000000e+000  0.000000e+000  0.000000e+000
    outer loop
      vertex  4.000000e+000  0.000000e+000  5.500000e+000
      vertex  4.000000e+000 -1.800000e+000  5.500000e+000
      vertex  4.000000e+000  0.000000e+000  1.000000e+000
    endloop
  endfacet
  facet normal  1.000000e+000  0.000000e+000  0.000000e+000
    outer loop
      vertex  4.000000e+000  0.000000e+000  1.000000e+000
      vertex  4.000000e+000 -1.800000e+000  5.500000e+000
      vertex  4.000000e+000 -1.800000e+000  5.000000e-001
    endloop
  endfacet
  facet normal  1.000000e+000  0.000000e+000  0.000000e+000
    outer loop
      vertex  4.000000e+000  0.000000e+000  1.000000e+000
      vertex  4.000000e+000 -1.800000e+000  5.000000e-001
      vertex  4.000000e+000  0.000000e+000  5.000000e-001
    endloop
  endfacet
  facet normal  9.238794e-001  0.000000e+000  3.826838e-001
    outer loop
      vertex  4.000000e+000 -1.800000e+000  5.500000e+000
      vertex  4.000000e+000  0.000000e+000  5.500000e+000
      vertex  3.853553e+000 -1.800000e+000  5.853553e+000
    endloop
  endfacet
  facet normal  9.238794e-001  0.000000e+000  3.826838e-001
    outer loop
      vertex  3.853553e+000 -1.800000e+000  5.853553e+000
      vertex  4.000000e+000  0.000000e+000  5.500000e+000
      vertex  3.853553e+000  0.000000e+000  5.853553e+000
    endloop
  endfacet
  facet normal  3.826838e-001  0.000000e+000  9.238794e-001
    outer loop
      vertex  3.853553e+000 -1.800000e+000  5.853553e+000
      vertex  3.853553e+000  0.000000e+000  5.853553e+000
      vertex  3.500000e+000 -1.800000e+000  6.000000e+000
    endloop
  endfacet
  facet normal  3.826838e-001  0.000000e+000  9.238794e-001
    outer loop
      vertex  3.500000e+000 -1.800000e+000  6.000000e+000
      vertex  3.853553e+000  0.000000e+000  5.853553e+000
      vertex  3.500000e+000  0.000000e+000  6.000000e+000
    endloop
  endfacet
  facet normal  3.574069e-001 -3.574065e-001 -8.628563e-001
    outer loop
      vertex  3.500000e+000 -1.800000e+000  0.000000e+000
      vertex  3.853553e+000 -1.800000e+000  1.464466e-001
      vertex  3.500000e+000 -1.941421e+000  5.857864e-002
    endloop
  endfacet
  facet normal  3.574068e-001 -3.574061e-001 -8.628564e-001
    outer loop
      vertex  3.500000e+000 -1.941421e+000  5.857864e-002
      vertex  3.853553e+000 -1.800000e+000  1.464466e-001
      vertex  3.812132e+000 -1.941421e+000  1.878680e-001
    endloop
  endfacet
  facet normal  1.565579e-001 -9.124871e-001 -3.779643e-001
    outer loop
      vertex  3.500000e+000 -1.941421e+000  5.857864e-002
      vertex  3.812132e+000 -1.941421e+000  1.878680e-001
      vertex  3.500000e+000 -2.000000e+000  2.000000e-001
    endloop
  endfacet
  facet normal  1.565579e-001 -9.124869e-001 -3.779647e-001
    outer loop
      vertex  3.500000e+000 -2.000000e+000  2.000000e-001
      vertex  3.812132e+000 -1.941421e+000  1.878680e-001
      vertex  3.712132e+000 -2.000000e+000  2.878678e-001
    endloop
  endfacet
  facet normal  8.628565e-001 -3.574056e-001 -3.574071e-001
    outer loop
      vertex  3.853553e+000 -1.800000e+000  1.464466e-001
      vertex  4.000000e+000 -1.800000e+000  5.000000e-001
      vertex  3.812132e+000 -1.941421e+000  1.878680e-001
    endloop
  endfacet
  facet normal  8.628563e-001 -3.574071e-001 -3.574063e-001
    outer loop
      vertex  3.812132e+000 -1.941421e+000  1.878680e-001
      vertex  4.000000e+000 -1.800000e+000  5.000000e-001
      vertex  3.941421e+000 -1.941421e+000  5.000000e-001
    endloop
  endfacet
  facet normal  3.779643e-001 -9.124871e-001 -1.565577e-001
    outer loop
      vertex  3.812132e+000 -1.941421e+000  1.878680e-001
      vertex  3.941421e+000 -1.941421e+000  5.000000e-001
      vertex  3.712132e+000 -2.000000e+000  2.878678e-001
    endloop
  endfacet
  facet normal  3.779648e-001 -9.124867e-001 -1.565584e-001
    outer loop
      vertex  3.712132e+000 -2.000000e+000  2.878678e-001
      vertex  3.941421e+000 -1.941421e+000  5.000000e-001
      vertex  3.800000e+000 -2.000000e+000  4.999996e-001
    endloop
  endfacet
  facet normal  0.000000e+000 -9.238796e-001 -3.826832e-001
    outer loop
      vertex  3.500000e+000 -2.000000e+000  2.000000e-001
      vertex -3.500000e+000 -2.000000e+000  2.000000e-001
      vertex  3.500000e+000 -1.941421e+000  5.857864e-002
    endloop
  endfacet
  facet normal  0.000000e+000 -9.238796e-001 -3.826832e-001
    outer loop
      vertex  3.500000e+000 -1.941421e+000  5.857864e-002
      vertex -3.500000e+000 -2.000000e+000  2.000000e-001
      vertex -3.500000e+000 -1.941421e+000  5.857864e-002
    endloop
  endfacet
  facet normal  0.000000e+000 -3.826832e-001 -9.238796e-001
    outer loop
      vertex  3.500000e+000 -1.941421e+000  5.857864e-002
      vertex -3.500000e+000 -1.941421e+000  5.857864e-002
      vertex  3.500000e+000 -1.800000e+000  0.000000e+000
    endloop
  endfacet
  facet normal  0.000000e+000 -3.826832e-001 -9.238796e-001
    outer loop
      vertex  3.500000e+000 -1.800000e+000  0.000000e+000
      vertex -3.500000e+000 -1.941421e+000  5.857864e-002
      vertex -3.500000e+000 -1.800000e+000  0.000000e+000
    endloop
  endfacet
  facet normal -8.628560e-001 -3.574070e-001 -3.574069e-001
    outer loop
      vertex -4.000000e+000 -1.800000e+000  5.000000e-001
      vertex -3.853553e+000 -1.800000e+000  1.464466e-001
      vertex -3.941421e+000 -1.941421e+000  5.000000e-001
    endloop
  endfacet
  facet normal -8.628568e-001 -3.574055e-001 -3.574065e-001
    outer loop
      vertex -3.941421e+000 -1.941421e+000  5.000000e-001
      vertex -3.853553e+000 -1.800000e+000  1.464466e-001
      vertex -3.812132e+000 -1.941421e+000  1.878680e-001
    endloop
  endfacet
  facet normal -3.779644e-001 -9.124870e-001 -1.565578e-001
    outer loop
      vertex -3.941421e+000 -1.941421e+000  5.000000e-001
      vertex -3.812132e+000 -1.941421e+000  1.878680e-001
      vertex -3.800000e+000 -2.000000e+000  5.000000e-001
    endloop
  endfacet
  facet normal -3.779646e-001 -9.124870e-001 -1.565578e-001
    outer loop
      vertex -3.800000e+000 -2.000000e+000  5.000000e-001
      vertex -3.812132e+000 -1.941421e+000  1.878680e-001
      vertex -3.712132e+000 -2.000000e+000  2.878681e-001
    endloop
  endfacet
  facet normal -3.574069e-001 -3.574062e-001 -8.628564e-001
    outer loop
      vertex -3.853553e+000 -1.800000e+000  1.464466e-001
      vertex -3.500000e+000 -1.800000e+000  0.000000e+000
      vertex -3.812132e+000 -1.941421e+000  1.878680e-001
    endloop
  endfacet
  facet normal -3.574067e-001 -3.574066e-001 -8.628563e-001
    outer loop
      vertex -3.812132e+000 -1.941421e+000  1.878680e-001
      vertex -3.500000e+000 -1.800000e+000  0.000000e+000
      vertex -3.500000e+000 -1.941421e+000  5.857864e-002
    endloop
  endfacet
  facet normal -1.565578e-001 -9.124871e-001 -3.779641e-001
    outer loop
      vertex -3.812132e+000 -1.941421e+000  1.878680e-001
      vertex -3.500000e+000 -1.941421e+000  5.857864e-002
      vertex -3.712132e+000 -2.000000e+000  2.878681e-001
    endloop
  endfacet
  facet normal -1.565586e-001 -9.124868e-001 -3.779647e-001
    outer loop
      vertex -3.712132e+000 -2.000000e+000  2.878681e-001
      vertex -3.500000e+000 -1.941421e+000  5.857864e-002
      vertex -3.500000e+000 -2.000000e+000  2.000000e-001
    endloop
  endfacet
  facet normal -3.826833e-001 -9.238796e-001  0.000000e+000
    outer loop
      vertex -3.800000e+000 -2.000000e+000  5.000000e-001
      vertex -3.800000e+000 -2.000000e+000  5.500000e+000
      vertex -3.941421e+000 -1.941421e+000  5.000000e-001
    endloop
  endfacet
  facet normal -3.826833e-001 -9.238796e-001  0.000000e+000
    outer loop
      vertex -3.941421e+000 -1.941421e+000  5.000000e-001
      vertex -3.800000e+000 -2.000000e+000  5.500000e+000
      vertex -3.941421e+000 -1.941421e+000  5.500000e+000
    endloop
  endfacet
  facet normal -9.238794e-001 -3.826837e-001  0.000000e+000
    outer loop
      vertex -3.941421e+000 -1.941421e+000  5.000000e-001
      vertex -3.941421e+000 -1.941421e+000  5.500000e+000
      vertex -4.000000e+000 -1.800000e+000  5.000000e-001
    endloop
  endfacet
  facet normal -9.238794e-001 -3.826837e-001  0.000000e+000
    outer loop
      vertex -4.000000e+000 -1.800000e+000  5.000000e-001
      vertex -3.941421e+000 -1.941421e+000  5.500000e+000
      vertex -4.000000e+000 -1.800000e+000  5.500000e+000
    endloop
  endfacet
  facet normal -3.574072e-001 -3.574057e-001  8.628564e-001
    outer loop
      vertex -3.500000e+000 -1.800000e+000  6.000000e+000
      vertex -3.853553e+000 -1.800000e+000  5.853553e+000
      vertex -3.500000e+000 -1.941421e+000  5.941422e+000
    endloop
  endfacet
  facet normal -3.574074e-001 -3.574066e-001  8.628560e-001
    outer loop
      vertex -3.500000e+000 -1.941421e+000  5.941422e+000
      vertex -3.853553e+000 -1.800000e+000  5.853553e+000
      vertex -3.812132e+000 -1.941421e+000  5.812132e+000
    endloop
  endfacet
  facet normal -1.565583e-001 -9.124870e-001  3.779643e-001
    outer loop
      vertex -3.500000e+000 -1.941421e+000  5.941422e+000
      vertex -3.812132e+000 -1.941421e+000  5.812132e+000
      vertex -3.500000e+000 -2.000000e+000  5.800000e+000
    endloop
  endfacet
  facet normal -1.565583e-001 -9.124871e-001  3.779641e-001
    outer loop
      vertex -3.500000e+000 -2.000000e+000  5.800000e+000
      vertex -3.812132e+000 -1.941421e+000  5.812132e+000
      vertex -3.712132e+000 -2.000000e+000  5.712132e+000
    endloop
  endfacet
  facet normal -8.628564e-001 -3.574058e-001  3.574072e-001
    outer loop
      vertex -3.853553e+000 -1.800000e+000  5.853553e+000
      vertex -4.000000e+000 -1.800000e+000  5.500000e+000
      vertex -3.812132e+000 -1.941421e+000  5.812132e+000
    endloop
  endfacet
  facet normal -8.628562e-001 -3.574071e-001  3.574064e-001
    outer loop
      vertex -3.812132e+000 -1.941421e+000  5.812132e+000
      vertex -4.000000e+000 -1.800000e+000  5.500000e+000
      vertex -3.941421e+000 -1.941421e+000  5.500000e+000
    endloop
  endfacet
  facet normal -3.779642e-001 -9.124871e-001  1.565578e-001
    outer loop
      vertex -3.812132e+000 -1.941421e+000  5.812132e+000
      vertex -3.941421e+000 -1.941421e+000  5.500000e+000
      vertex -3.712132e+000 -2.000000e+000  5.712132e+000
    endloop
  endfacet
  facet normal -3.779648e-001 -9.124867e-001  1.565585e-001
    outer loop
      vertex -3.712132e+000 -2.000000e+000  5.712132e+000
      vertex -3.941421e+000 -1.941421e+000  5.500000e+000
      vertex -3.800000e+000 -2.000000e+000  5.500000e+000
    endloop
  endfacet
  facet normal  0.000000e+000 -3.826824e-001  9.238800e-001
    outer loop
      vertex  3.500000e+000 -1.800000e+000  6.000000e+000
      vertex -3.500000e+000 -1.800000e+000  6.000000e+000
      vertex  3.500000e+000 -1.941421e+000  5.941422e+000
    endloop
  endfacet
  facet normal  0.000000e+000 -3.826824e-001  9.238800e-001
    outer loop
      vertex  3.500000e+000 -1.941421e+000  5.941422e+000
      vertex -3.500000e+000 -1.800000e+000  6.000000e+000
      vertex -3.500000e+000 -1.941421e+000  5.941422e+000
    endloop
  endfacet
  facet normal  0.000000e+000 -9.238796e-001  3.826833e-001
    outer loop
      vertex  3.500000e+000 -1.941421e+000  5.941422e+000
      vertex -3.500000e+000 -1.941421e+000  5.941422e+000
      vertex  3.500000e+000 -2.000000e+000  5.800000e+000
    endloop
  endfacet
  facet normal  0.000000e+000 -9.238796e-001  3.826833e-001
    outer loop
      vertex  3.500000e+000 -2.000000e+000  5.800000e+000
      vertex -3.500000e+000 -1.941421e+000  5.941422e+000
      vertex -3.500000e+000 -2.000000e+000  5.800000e+000
    endloop
  endfacet
  facet normal  8.628560e-001 -3.574070e-001  3.574070e-001
    outer loop
      vertex  4.000000e+000 -1.800000e+000  5.500000e+000
      vertex  3.853553e+000 -1.800000e+000  5.853553e+000
      vertex  3.941421e+000 -1.941421e+000  5.500000e+000
    endloop
  endfacet
  facet normal  8.628567e-001 -3.574057e-001  3.574066e-001
    outer loop
      vertex  3.941421e+000 -1.941421e+000  5.500000e+000
      vertex  3.853553e+000 -1.800000e+000  5.853553e+000
      vertex  3.812132e+000 -1.941421e+000  5.812132e+000
    endloop
  endfacet
  facet normal  3.779644e-001 -9.124870e-001  1.565579e-001
    outer loop
      vertex  3.941421e+000 -1.941421e+000  5.500000e+000
      vertex  3.812132e+000 -1.941421e+000  5.812132e+000
      vertex  3.800000e+000 -2.000000e+000  5.500000e+000
    endloop
  endfacet
  facet normal  3.779648e-001 -9.124869e-001  1.565578e-001
    outer loop
      vertex  3.800000e+000 -2.000000e+000  5.500000e+000
      vertex  3.812132e+000 -1.941421e+000  5.812132e+000
      vertex  3.712132e+000 -2.000000e+000  5.712132e+000
    endloop
  endfacet
  facet normal  3.574071e-001 -3.574065e-001  8.628562e-001
    outer loop
      vertex  3.853553e+000 -1.800000e+000  5.853553e+000
      vertex  3.500000e+000 -1.800000e+000  6.000000e+000
      vertex  3.812132e+000 -1.941421e+000  5.812132e+000
    endloop
  endfacet
  facet normal  3.574075e-001 -3.574057e-001  8.628563e-001
    outer loop
      vertex  3.812132e+000 -1.941421e+000  5.812132e+000
      vertex  3.500000e+000 -1.800000e+000  6.000000e+000
      vertex  3.500000e+000 -1.941421e+000  5.941422e+000
    endloop
  endfacet
  facet normal  1.565583e-001 -9.124870e-001  3.779644e-001
    outer loop
      vertex  3.812132e+000 -1.941421e+000  5.812132e+000
      vertex  3.500000e+000 -1.941421e+000  5.941422e+000
      vertex  3.712132e+000 -2.000000e+000  5.712132e+000
    endloop
  endfacet
  facet normal  1.565588e-001 -9.124867e-001  3.779648e-001
    outer loop
      vertex  3.712132e+000 -2.000000e+000  5.712132e+000
      vertex  3.500000e+000 -1.941421e+000  5.941422e+000
      vertex  3.500000e+000 -2.000000e+000  5.800000e+000
    endloop
  endfacet
  facet normal  9.238794e-001 -3.826837e-001  0.000000e+000
    outer loop
      vertex  4.000000e+000 -1.800000e+000  5.000000e-001
      vertex  4.000000e+000 -1.800000e+000  5.500000e+000
      vertex  3.941421e+000 -1.941421e+000  5.000000e-001
    endloop
  endfacet
  facet normal  9.238794e-001 -3.826837e-001  0.000000e+000
    outer loop
      vertex  3.941421e+000 -1.941421e+000  5.000000e-001
      vertex  4.000000e+000 -1.800000e+000  5.500000e+000
      vertex  3.941421e+000 -1.941421e+000  5.500000e+000
    endloop
  endfacet
  facet normal  3.826833e-001 -9.238796e-001  0.000000e+000
    outer loop
      vertex  3.941421e+000 -1.941421e+000  5.000000e-001
      vertex  3.941421e+000 -1.941421e+000  5.500000e+000
      vertex  3.800000e+000 -2.000000e+000  4.999996e-001
    endloop
  endfacet
  facet normal  3.826833e-001 -9.238796e-001  0.000000e+000
    outer loop
      vertex  3.800000e+000 -2.000000e+000  4.999996e-001
      vertex  3.941421e+000 -1.941421e+000  5.500000e+000
      vertex  3.800000e+000 -2.000000e+000  5.500000e+000
    endloop
  endfacet
  facet normal  0.000000e+000  1.000000e+000  0.000000e+000
    outer loop
      vertex -4.000000e+000  0.000000e+000  5.500000e+000
      vertex -3.853553e+000  0.000000e+000  5.853553e+000
      vertex -4.000000e+000  0.000000e+000  1.000000e+000
    endloop
  endfacet
  facet normal  0.000000e+000  1.000000e+000  0.000000e+000
    outer loop
      vertex -4.000000e+000  0.000000e+000  1.000000e+000
      vertex -3.853553e+000  0.000000e+000  5.853553e+000
      vertex -3.500000e+000  0.000000e+000  6.000000e+000
    endloop
  endfacet
  facet normal  0.000000e+000  1.000000e+000  0.000000e+000
    outer loop
      vertex -4.000000e+000  0.000000e+000  1.000000e+000
      vertex -3.500000e+000  0.000000e+000  6.000000e+000
      vertex  4.000000e+000  0.000000e+000  1.000000e+000
    endloop
  endfacet
  facet normal  0.000000e+000  1.000000e+000  0.000000e+000
    outer loop
      vertex  4.000000e+000  0.000000e+000  1.000000e+000
      vertex -3.500000e+000  0.000000e+000  6.000000e+000
      vertex  3.500000e+000  0.000000e+000  6.000000e+000
    endloop
  endfacet
  facet normal  0.000000e+000  1.000000e+000  0.000000e+000
    outer loop
      vertex  4.000000e+000  0.000000e+000  1.000000e+000
      vertex  3.500000e+000  0.000000e+000  6.000000e+000
      vertex  4.000000e+000  0.000000e+000  5.500000e+000
    endloop
  endfacet
  facet normal  0.000000e+000  1.000000e+000  0.000000e+000
    outer loop
      vertex  4.000000e+000  0.000000e+000  5.500000e+000
      vertex  3.500000e+000  0.000000e+000  6.000000e+000
      vertex  3.853553e+000  0.000000e+000  5.853553e+000
    endloop
  endfacet
  facet normal  0.000000e+000 -1.000000e+000  0.000000e+000
    outer loop
      vertex  1.500000e+001  2.000000e+000  1.000000e+000
      vertex  1.500000e+001  2.000000e+000  3.000000e+000
      vertex -1.500000e+001  2.000000e+000  1.000000e+000
    endloop
  endfacet
  facet normal  0.000000e+000 -1.000000e+000  0.000000e+000
    outer loop
      vertex -1.500000e+001  2.000000e+000  1.000000e+000
      vertex  1.500000e+001  2.000000e+000  3.000000e+000
      vertex -1.500000e+001  2.000000e+000  3.000000e+000
    endloop
  endfacet
endsolid CATIA STL
